<?xml version="1.0" encoding="UTF-8" standalone="no"?>
<svg
   xmlns:dc="http://purl.org/dc/elements/1.1/"
   xmlns:cc="http://creativecommons.org/ns#"
   xmlns:rdf="http://www.w3.org/1999/02/22-rdf-syntax-ns#"
   xmlns:svg="http://www.w3.org/2000/svg"
   xmlns="http://www.w3.org/2000/svg"
   xmlns:sodipodi="http://sodipodi.sourceforge.net/DTD/sodipodi-0.dtd"
   xmlns:inkscape="http://www.inkscape.org/namespaces/inkscape"
   width="50.000256mm"
   height="24.336729mm"
   viewBox="0 0 50.000256 24.336729"
   version="1.1"
   id="svg9320"
   inkscape:version="1.0.2 (e86c870879, 2021-01-15)"
   sodipodi:docname="permedcoe.svg">
  <defs
     id="defs9314" />
  <sodipodi:namedview
     id="base"
     pagecolor="#ffffff"
     bordercolor="#666666"
     borderopacity="1.0"
     inkscape:pageopacity="0.0"
     inkscape:pageshadow="2"
     inkscape:zoom="2.9269844"
     inkscape:cx="70.806902"
     inkscape:cy="96.259331"
     inkscape:document-units="mm"
     inkscape:current-layer="layer1"
     inkscape:document-rotation="0"
     showgrid="false"
     fit-margin-top="0"
     fit-margin-left="0"
     fit-margin-right="0"
     fit-margin-bottom="0"
     inkscape:window-width="1920"
     inkscape:window-height="1047"
     inkscape:window-x="0"
     inkscape:window-y="33"
     inkscape:window-maximized="1" />
  <metadata
     id="metadata9317">
    <rdf:RDF>
      <cc:Work
         rdf:about="">
        <dc:format>image/svg+xml</dc:format>
        <dc:type
           rdf:resource="http://purl.org/dc/dcmitype/StillImage" />
        <dc:title></dc:title>
      </cc:Work>
    </rdf:RDF>
  </metadata>
  <g
     inkscape:label="Layer 1"
     inkscape:groupmode="layer"
     id="layer1"
     transform="translate(-67.226064,-124.65902)">
    <path
       d="M 117.22632,124.65902 H 92.889236 v 24.33673 h 24.337084 z"
       style="fill:#ffffff;fill-opacity:1;fill-rule:nonzero;stroke:none;stroke-width:0.352778"
       id="path10345"
       sodipodi:nodetypes="ccccc" />
    <g
       id="g2348"
       transform="matrix(0.35277777,0,0,-0.35277777,97.931207,130.70055)">
      <path
         d="m 0,0 h -0.37 -0.371 v 1.293 1.293 h -1.41 -1.411 V 1.293 0 H -3.93 -4.299 v 2.797 2.798 h 0.369 0.368 V 4.392 3.189 h 1.411 1.41 V 4.392 5.595 H -0.37 0 V 2.797 Z"
         style="fill:#263a75;fill-opacity:1;fill-rule:nonzero;stroke:none"
         id="path2350" />
    </g>
    <g
       id="g2352"
       transform="matrix(0.35277777,0,0,-0.35277777,98.65366,129.7151)">
      <path
         d="M 0,0 H 0.663 1.326 C 1.523,0 1.697,0.023 1.849,0.07 1.999,0.116 2.128,0.186 2.233,0.279 2.338,0.372 2.417,0.486 2.47,0.62 2.521,0.754 2.548,0.91 2.548,1.085 2.548,1.252 2.521,1.402 2.47,1.536 2.417,1.669 2.338,1.786 2.233,1.886 2.128,1.986 2.003,2.062 1.859,2.114 1.715,2.166 1.551,2.194 1.368,2.198 H 0.685 0 V 1.099 Z m 0,-0.604 v -1.094 -1.095 h -0.369 -0.369 v 2.797 2.797 h 1.032 1.032 c 0.306,0 0.579,-0.039 0.82,-0.117 C 2.385,2.605 2.592,2.488 2.766,2.333 2.938,2.176 3.068,1.994 3.155,1.788 3.242,1.581 3.285,1.349 3.285,1.091 3.285,0.82 3.242,0.58 3.158,0.371 3.073,0.161 2.946,-0.017 2.776,-0.163 2.606,-0.31 2.4,-0.42 2.157,-0.493 1.914,-0.567 1.635,-0.604 1.318,-0.604 H 0.659 Z"
         style="fill:#263a75;fill-opacity:1;fill-rule:nonzero;stroke:none"
         id="path2354" />
    </g>
    <g
       id="g2356"
       transform="matrix(0.35277777,0,0,-0.35277777,101.59646,130.07423)">
      <path
         d="m 0,0 c -0.034,-0.296 -0.106,-0.558 -0.216,-0.786 -0.109,-0.229 -0.256,-0.423 -0.439,-0.584 -0.184,-0.16 -0.398,-0.281 -0.642,-0.361 -0.244,-0.081 -0.518,-0.121 -0.824,-0.121 -0.33,0 -0.628,0.059 -0.893,0.178 -0.264,0.118 -0.497,0.296 -0.696,0.532 -0.199,0.238 -0.349,0.515 -0.448,0.831 -0.1,0.318 -0.15,0.675 -0.15,1.072 V 1.03 1.299 c 0,0.26 0.024,0.504 0.071,0.732 0.047,0.229 0.116,0.442 0.209,0.639 0.092,0.197 0.205,0.372 0.336,0.523 0.131,0.152 0.282,0.28 0.453,0.386 0.17,0.106 0.353,0.185 0.551,0.238 0.197,0.053 0.408,0.079 0.632,0.079 0.297,0 0.565,-0.042 0.803,-0.125 0.238,-0.082 0.447,-0.207 0.626,-0.372 0.18,-0.166 0.321,-0.364 0.426,-0.594 C -0.097,2.576 -0.03,2.314 0,2.021 h -0.371 -0.37 c -0.032,0.224 -0.083,0.416 -0.154,0.578 -0.069,0.162 -0.157,0.293 -0.264,0.393 -0.107,0.101 -0.236,0.175 -0.385,0.226 -0.149,0.05 -0.32,0.074 -0.512,0.074 -0.235,0 -0.445,-0.043 -0.631,-0.13 C -2.871,3.075 -3.03,2.944 -3.164,2.77 -3.298,2.596 -3.398,2.384 -3.466,2.136 -3.532,1.888 -3.565,1.603 -3.565,1.281 V 1.01 0.739 c 0,-0.303 0.031,-0.576 0.094,-0.818 0.064,-0.241 0.158,-0.452 0.285,-0.631 0.127,-0.18 0.28,-0.314 0.457,-0.404 0.177,-0.09 0.38,-0.135 0.608,-0.135 0.205,0 0.386,0.023 0.543,0.07 0.157,0.046 0.291,0.116 0.4,0.209 0.11,0.093 0.2,0.22 0.274,0.382 0.072,0.161 0.127,0.358 0.163,0.588 h 0.37 z"
         style="fill:#263a75;fill-opacity:1;fill-rule:nonzero;stroke:none"
         id="path2358" />
    </g>
    <g
       id="g2360"
       transform="matrix(0.35277777,0,0,-0.35277777,101.96233,130.86989)">
      <path
         d="M 0,0 H -0.306 -0.61 L 0.558,3.038 1.726,6.075 H 2.028 2.332 L 1.166,3.038 Z"
         style="fill:#263a75;fill-opacity:1;fill-rule:nonzero;stroke:none"
         id="path2362" />
    </g>
    <g
       id="g2364"
       transform="matrix(0.35277777,0,0,-0.35277777,104.21093,129.78831)">
      <path
         d="m 0,0 h -1.212 -1.212 v -0.991 -0.992 h 1.408 1.409 v -0.301 -0.302 h -1.778 -1.777 v 2.797 2.798 h 1.758 1.758 V 2.707 2.405 h -1.389 -1.389 v -0.901 -0.9 h 1.212 L 0,0.604 V 0.302 Z"
         style="fill:#263a75;fill-opacity:1;fill-rule:nonzero;stroke:none"
         id="path2366" />
    </g>
    <g
       id="g2368"
       transform="matrix(0.35277777,0,0,-0.35277777,105.12597,129.76936)">
      <path
         d="M 0,0 0.461,0.759 0.922,1.518 H 1.337 1.752 L 1.072,0.49 0.392,-0.538 1.094,-1.588 1.795,-2.64 H 1.384 0.973 l -0.481,0.779 -0.48,0.778 -0.481,-0.778 -0.48,-0.779 h -0.413 -0.412 l 0.701,1.052 0.701,1.05 -0.681,1.028 -0.679,1.028 h 0.411 0.411 l 0.455,-0.759 z"
         style="fill:#263a75;fill-opacity:1;fill-rule:nonzero;stroke:none"
         id="path2370" />
    </g>
    <g
       id="g2372"
       transform="matrix(0.35277777,0,0,-0.35277777,106.49919,130.50935)">
      <path
         d="M 0,0 C 0.111,0 0.22,0.015 0.325,0.043 0.432,0.072 0.534,0.115 0.634,0.173 0.733,0.23 0.819,0.297 0.893,0.372 0.965,0.447 1.023,0.53 1.068,0.623 V 1.049 1.475 H 0.789 0.511 C 0.075,1.475 -0.251,1.412 -0.469,1.284 -0.687,1.157 -0.795,0.965 -0.795,0.711 -0.795,0.6 -0.776,0.5 -0.74,0.413 -0.703,0.326 -0.647,0.251 -0.573,0.188 -0.499,0.125 -0.414,0.079 -0.318,0.047 -0.223,0.016 -0.116,0 0,0 M 1.179,-0.542 C 1.158,-0.501 1.14,-0.444 1.123,-0.371 1.106,-0.298 1.092,-0.208 1.079,-0.104 0.914,-0.275 0.732,-0.404 0.535,-0.49 0.338,-0.576 0.125,-0.619 -0.104,-0.619 c -0.206,0 -0.392,0.029 -0.56,0.087 -0.168,0.058 -0.317,0.145 -0.448,0.261 -0.131,0.116 -0.23,0.248 -0.296,0.395 -0.066,0.147 -0.099,0.309 -0.099,0.487 0,0.216 0.041,0.409 0.124,0.576 0.082,0.169 0.206,0.313 0.371,0.433 0.164,0.119 0.362,0.209 0.593,0.269 0.232,0.06 0.496,0.09 0.795,0.09 H 0.722 1.068 V 2.142 2.306 C 1.068,2.429 1.05,2.541 1.013,2.64 0.975,2.739 0.919,2.825 0.845,2.899 0.771,2.973 0.679,3.028 0.569,3.064 0.46,3.102 0.333,3.12 0.188,3.12 0.062,3.12 -0.056,3.104 -0.162,3.072 -0.269,3.04 -0.364,2.992 -0.45,2.928 -0.536,2.864 -0.6,2.793 -0.643,2.715 -0.686,2.638 -0.707,2.554 -0.707,2.463 h -0.357 -0.358 c 0,0.104 0.019,0.206 0.056,0.306 0.036,0.1 0.092,0.199 0.165,0.295 0.074,0.097 0.161,0.184 0.261,0.26 0.099,0.076 0.212,0.143 0.338,0.199 0.126,0.057 0.259,0.099 0.398,0.127 0.139,0.029 0.283,0.042 0.434,0.042 0.24,0 0.454,-0.029 0.641,-0.089 0.188,-0.06 0.35,-0.15 0.485,-0.27 C 1.492,3.213 1.595,3.071 1.665,2.906 1.735,2.741 1.773,2.554 1.778,2.343 V 1.387 0.43 c 0,-0.191 0.013,-0.362 0.037,-0.513 0.025,-0.152 0.061,-0.285 0.11,-0.397 V -0.511 -0.542 H 1.552 Z"
         style="fill:#263a75;fill-opacity:1;fill-rule:nonzero;stroke:none"
         id="path2374" />
    </g>
    <g
       id="g2376"
       transform="matrix(0.35277777,0,0,-0.35277777,108.37364,130.31144)">
      <path
         d="M 0,0 C 0,0.096 -0.018,0.181 -0.054,0.256 -0.09,0.331 -0.145,0.395 -0.217,0.448 -0.289,0.5 -0.389,0.55 -0.515,0.596 -0.641,0.642 -0.794,0.684 -0.974,0.723 -1.153,0.761 -1.315,0.803 -1.458,0.849 -1.602,0.895 -1.726,0.945 -1.831,0.999 -1.937,1.053 -2.028,1.112 -2.106,1.176 -2.185,1.24 -2.249,1.309 -2.3,1.383 c -0.051,0.074 -0.089,0.156 -0.114,0.244 -0.025,0.088 -0.038,0.184 -0.038,0.286 0,0.17 0.036,0.328 0.108,0.472 0.073,0.144 0.181,0.275 0.324,0.392 0.145,0.119 0.309,0.207 0.494,0.266 0.183,0.059 0.387,0.088 0.611,0.088 0.236,0 0.45,-0.03 0.641,-0.091 C -0.083,2.979 0.086,2.888 0.232,2.767 0.379,2.645 0.489,2.506 0.562,2.351 0.636,2.195 0.673,2.022 0.673,1.833 H 0.315 -0.042 c 0,0.097 -0.02,0.188 -0.062,0.271 -0.041,0.084 -0.103,0.162 -0.186,0.232 -0.083,0.071 -0.176,0.123 -0.28,0.159 -0.104,0.035 -0.219,0.053 -0.345,0.053 -0.129,0 -0.244,-0.014 -0.346,-0.043 -0.1,-0.028 -0.188,-0.07 -0.26,-0.127 C -1.595,2.322 -1.649,2.257 -1.686,2.183 -1.722,2.11 -1.74,2.027 -1.74,1.936 -1.74,1.851 -1.724,1.775 -1.689,1.71 -1.655,1.646 -1.604,1.591 -1.537,1.548 -1.469,1.505 -1.374,1.462 -1.251,1.42 -1.128,1.379 -0.979,1.338 -0.801,1.298 -0.623,1.259 -0.463,1.215 -0.319,1.168 -0.176,1.12 -0.049,1.069 0.062,1.014 0.171,0.959 0.268,0.898 0.35,0.832 0.431,0.766 0.498,0.694 0.552,0.616 0.604,0.539 0.645,0.453 0.671,0.358 0.697,0.264 0.711,0.161 0.711,0.05 0.711,-0.136 0.674,-0.303 0.6,-0.452 0.525,-0.601 0.414,-0.731 0.266,-0.844 0.116,-0.956 -0.054,-1.04 -0.247,-1.096 -0.439,-1.152 -0.654,-1.18 -0.891,-1.18 c -0.167,0 -0.323,0.015 -0.47,0.044 -0.148,0.03 -0.285,0.074 -0.414,0.133 -0.128,0.059 -0.243,0.13 -0.342,0.212 -0.101,0.083 -0.187,0.176 -0.259,0.282 -0.072,0.105 -0.127,0.216 -0.163,0.33 -0.036,0.114 -0.054,0.233 -0.054,0.356 h 0.355 0.355 c 0.006,-0.119 0.033,-0.226 0.081,-0.321 0.048,-0.094 0.116,-0.176 0.206,-0.246 0.088,-0.07 0.192,-0.122 0.309,-0.157 0.118,-0.036 0.25,-0.053 0.396,-0.053 0.134,0 0.256,0.014 0.364,0.041 0.107,0.027 0.202,0.068 0.283,0.122 0.081,0.055 0.142,0.119 0.183,0.191 C -0.021,-0.173 0,-0.091 0,0"
         style="fill:#263a75;fill-opacity:1;fill-rule:nonzero;stroke:none"
         id="path2378" />
    </g>
    <g
       id="g2380"
       transform="matrix(0.35277777,0,0,-0.35277777,109.53946,130.52296)">
      <path
         d="M 0,0 C 0.127,0 0.245,0.019 0.356,0.058 0.467,0.096 0.569,0.153 0.664,0.23 0.759,0.307 0.833,0.394 0.885,0.49 0.937,0.586 0.969,0.692 0.979,0.807 H 1.315 1.652 C 1.646,0.688 1.622,0.572 1.581,0.458 1.54,0.345 1.481,0.234 1.406,0.126 1.33,0.019 1.242,-0.077 1.142,-0.163 1.041,-0.249 0.927,-0.324 0.801,-0.388 0.675,-0.452 0.545,-0.5 0.411,-0.532 0.278,-0.564 0.141,-0.58 0,-0.58 c -0.283,0 -0.537,0.047 -0.763,0.142 -0.224,0.094 -0.421,0.235 -0.588,0.424 -0.168,0.189 -0.293,0.413 -0.376,0.672 -0.084,0.258 -0.126,0.551 -0.126,0.879 v 0.06 0.059 c 0,0.203 0.019,0.394 0.056,0.574 0.037,0.18 0.094,0.349 0.168,0.506 0.074,0.158 0.164,0.297 0.271,0.42 0.106,0.122 0.229,0.227 0.369,0.314 0.138,0.087 0.29,0.152 0.454,0.196 0.164,0.043 0.341,0.065 0.531,0.065 0.233,0 0.446,-0.035 0.64,-0.105 C 0.83,3.556 1.004,3.452 1.158,3.312 1.312,3.173 1.431,3.012 1.514,2.831 1.596,2.65 1.642,2.448 1.652,2.225 H 1.315 0.979 C 0.969,2.359 0.938,2.482 0.888,2.592 0.837,2.703 0.766,2.801 0.674,2.888 0.582,2.974 0.48,3.039 0.367,3.082 0.254,3.125 0.13,3.147 -0.004,3.147 -0.185,3.147 -0.345,3.115 -0.484,3.049 -0.625,2.984 -0.744,2.887 -0.843,2.757 -0.943,2.627 -1.018,2.468 -1.067,2.28 -1.116,2.092 -1.141,1.875 -1.141,1.629 V 1.562 1.495 c 0,-0.24 0.025,-0.452 0.074,-0.636 0.049,-0.185 0.123,-0.341 0.221,-0.471 0.099,-0.129 0.219,-0.226 0.36,-0.291 C -0.345,0.032 -0.184,0 0,0"
         style="fill:#263a75;fill-opacity:1;fill-rule:nonzero;stroke:none"
         id="path2382" />
    </g>
    <g
       id="g2384"
       transform="matrix(0.35277777,0,0,-0.35277777,110.89339,130.50935)">
      <path
         d="m 0,0 c 0.111,0 0.22,0.015 0.326,0.043 0.106,0.029 0.208,0.072 0.308,0.13 0.1,0.057 0.186,0.124 0.259,0.199 0.072,0.075 0.13,0.158 0.175,0.251 V 1.049 1.475 H 0.79 0.511 C 0.075,1.475 -0.251,1.412 -0.469,1.284 -0.687,1.157 -0.795,0.965 -0.795,0.711 -0.795,0.6 -0.776,0.5 -0.739,0.413 -0.703,0.326 -0.647,0.251 -0.572,0.188 -0.498,0.125 -0.413,0.079 -0.318,0.047 -0.223,0.016 -0.116,0 0,0 M 1.18,-0.542 C 1.159,-0.501 1.141,-0.444 1.124,-0.371 1.107,-0.298 1.093,-0.208 1.08,-0.104 0.914,-0.275 0.733,-0.404 0.536,-0.49 0.339,-0.576 0.125,-0.619 -0.104,-0.619 c -0.205,0 -0.391,0.029 -0.559,0.087 -0.168,0.058 -0.318,0.145 -0.449,0.261 -0.131,0.116 -0.23,0.248 -0.295,0.395 -0.066,0.147 -0.099,0.309 -0.099,0.487 0,0.216 0.041,0.409 0.124,0.576 0.082,0.169 0.205,0.313 0.369,0.433 0.165,0.119 0.363,0.209 0.594,0.269 0.232,0.06 0.497,0.09 0.796,0.09 H 0.723 1.068 V 2.142 2.306 C 1.068,2.429 1.05,2.541 1.013,2.64 0.976,2.739 0.92,2.825 0.846,2.899 0.771,2.973 0.679,3.028 0.569,3.064 0.46,3.102 0.333,3.12 0.187,3.12 0.062,3.12 -0.056,3.104 -0.161,3.072 -0.268,3.04 -0.363,2.992 -0.449,2.928 -0.535,2.864 -0.6,2.793 -0.643,2.715 -0.686,2.638 -0.707,2.554 -0.707,2.463 h -0.357 -0.358 c 0,0.104 0.019,0.206 0.056,0.306 0.037,0.1 0.092,0.199 0.165,0.295 0.074,0.097 0.161,0.184 0.261,0.26 0.1,0.076 0.212,0.143 0.338,0.199 0.126,0.057 0.259,0.099 0.398,0.127 0.139,0.029 0.283,0.042 0.434,0.042 0.24,0 0.454,-0.029 0.641,-0.089 0.188,-0.06 0.35,-0.15 0.485,-0.27 C 1.492,3.213 1.596,3.071 1.666,2.906 1.736,2.741 1.774,2.554 1.778,2.343 V 1.387 0.43 c 0,-0.191 0.013,-0.362 0.037,-0.513 0.025,-0.152 0.061,-0.285 0.11,-0.397 V -0.511 -0.542 H 1.552 Z"
         style="fill:#263a75;fill-opacity:1;fill-rule:nonzero;stroke:none"
         id="path2386" />
    </g>
    <g
       id="g2388"
       transform="matrix(0.35277777,0,0,-0.35277777,112.18667,130.70055)">
      <path
         d="M 0,0 H -0.355 -0.712 V 2.951 5.902 H -0.355 0 V 2.951 Z"
         style="fill:#263a75;fill-opacity:1;fill-rule:nonzero;stroke:none"
         id="path2390" />
    </g>
    <g
       id="g2392"
       transform="matrix(0.35277777,0,0,-0.35277777,113.16542,129.4126)">
      <path
         d="M 0,0 C -0.144,0 -0.275,-0.026 -0.396,-0.079 -0.517,-0.131 -0.625,-0.209 -0.723,-0.314 -0.82,-0.418 -0.899,-0.543 -0.959,-0.69 -1.02,-0.836 -1.062,-1.003 -1.084,-1.191 h 1.041 1.041 v 0.026 0.027 C 0.987,-0.957 0.958,-0.797 0.91,-0.657 0.861,-0.517 0.794,-0.397 0.706,-0.298 0.619,-0.199 0.517,-0.125 0.398,-0.075 0.281,-0.025 0.147,0 0,0 m 0.088,-3.728 c -0.282,0 -0.537,0.047 -0.767,0.14 -0.229,0.092 -0.432,0.231 -0.609,0.416 -0.177,0.185 -0.31,0.401 -0.398,0.649 -0.087,0.247 -0.131,0.526 -0.131,0.836 v 0.065 0.065 c 0,0.206 0.019,0.402 0.058,0.586 0.039,0.184 0.099,0.357 0.177,0.519 0.079,0.162 0.173,0.306 0.283,0.433 0.111,0.127 0.237,0.236 0.378,0.328 0.142,0.091 0.289,0.16 0.442,0.206 C -0.325,0.561 -0.166,0.583 0,0.583 0.27,0.583 0.51,0.539 0.72,0.45 0.93,0.361 1.109,0.228 1.26,0.05 1.409,-0.128 1.521,-0.345 1.597,-0.6 1.672,-0.855 1.709,-1.148 1.709,-1.48 V -1.628 -1.775 H 0.301 -1.107 c 0.005,-0.205 0.038,-0.391 0.097,-0.557 0.06,-0.165 0.148,-0.311 0.262,-0.437 0.114,-0.126 0.245,-0.221 0.391,-0.284 0.145,-0.063 0.307,-0.094 0.483,-0.094 0.126,0 0.241,0.012 0.348,0.038 0.106,0.026 0.203,0.064 0.29,0.115 0.087,0.052 0.169,0.111 0.245,0.179 0.076,0.068 0.147,0.144 0.213,0.228 L 1.438,-2.755 1.655,-2.924 C 1.481,-3.192 1.264,-3.393 1.002,-3.527 0.74,-3.661 0.436,-3.728 0.088,-3.728"
         style="fill:#263a75;fill-opacity:1;fill-rule:nonzero;stroke:none"
         id="path2394" />
    </g>
    <g
       id="g2396"
       transform="matrix(0.35277777,0,0,-0.35277777,97.866119,133.65147)">
      <path
         d="m 0,0 c -0.034,-0.296 -0.106,-0.558 -0.216,-0.787 -0.108,-0.228 -0.255,-0.422 -0.438,-0.583 -0.185,-0.161 -0.399,-0.281 -0.643,-0.361 -0.244,-0.081 -0.518,-0.121 -0.823,-0.121 -0.331,0 -0.629,0.059 -0.894,0.177 -0.264,0.119 -0.496,0.297 -0.695,0.533 -0.199,0.237 -0.349,0.515 -0.448,0.831 -0.1,0.317 -0.15,0.675 -0.15,1.072 v 0.268 0.269 c 0,0.26 0.024,0.504 0.07,0.733 0.047,0.229 0.116,0.442 0.209,0.639 0.092,0.197 0.205,0.372 0.337,0.523 0.131,0.152 0.283,0.28 0.453,0.386 0.171,0.105 0.354,0.185 0.551,0.237 0.198,0.054 0.408,0.08 0.631,0.08 0.298,0 0.566,-0.042 0.804,-0.125 C -1.014,3.688 -0.806,3.564 -0.625,3.398 -0.446,3.232 -0.305,3.035 -0.2,2.805 -0.096,2.576 -0.029,2.314 0,2.021 h -0.37 -0.371 c -0.032,0.223 -0.083,0.416 -0.153,0.578 -0.069,0.162 -0.157,0.293 -0.264,0.393 -0.107,0.1 -0.235,0.175 -0.385,0.225 -0.149,0.051 -0.32,0.075 -0.513,0.075 -0.235,0 -0.445,-0.043 -0.63,-0.13 C -2.87,3.075 -3.029,2.944 -3.164,2.77 -3.298,2.595 -3.398,2.384 -3.465,2.136 -3.532,1.888 -3.565,1.603 -3.565,1.281 V 1.01 0.739 c 0,-0.304 0.032,-0.576 0.095,-0.818 0.064,-0.242 0.158,-0.452 0.285,-0.631 0.127,-0.18 0.28,-0.315 0.456,-0.405 0.178,-0.09 0.38,-0.135 0.609,-0.135 0.205,0 0.386,0.024 0.543,0.071 0.157,0.046 0.291,0.116 0.4,0.208 0.11,0.093 0.2,0.221 0.274,0.382 0.072,0.162 0.127,0.359 0.162,0.589 h 0.371 z"
         style="fill:#263a75;fill-opacity:1;fill-rule:nonzero;stroke:none"
         id="path2398" />
    </g>
    <g
       id="g2400"
       transform="matrix(0.35277777,0,0,-0.35277777,98.759423,132.99001)">
      <path
         d="m 0,0 c -0.144,0 -0.275,-0.026 -0.396,-0.078 -0.12,-0.052 -0.229,-0.131 -0.327,-0.235 -0.096,-0.105 -0.175,-0.23 -0.236,-0.376 -0.061,-0.147 -0.102,-0.314 -0.125,-0.502 h 1.042 1.041 v 0.026 0.027 c -0.01,0.181 -0.04,0.342 -0.089,0.481 -0.048,0.14 -0.116,0.26 -0.203,0.359 C 0.62,-0.199 0.518,-0.124 0.399,-0.075 0.282,-0.025 0.148,0 0,0 m 0.089,-3.727 c -0.282,0 -0.537,0.046 -0.767,0.139 -0.229,0.092 -0.431,0.231 -0.608,0.416 -0.178,0.185 -0.31,0.401 -0.399,0.649 -0.088,0.247 -0.132,0.526 -0.132,0.836 v 0.065 0.065 c 0,0.207 0.019,0.402 0.059,0.586 0.039,0.184 0.099,0.358 0.177,0.52 0.079,0.161 0.173,0.306 0.283,0.433 0.111,0.126 0.236,0.236 0.377,0.327 0.143,0.091 0.29,0.16 0.443,0.206 C -0.324,0.561 -0.165,0.584 0,0.584 0.271,0.584 0.511,0.54 0.721,0.45 0.931,0.361 1.11,0.228 1.261,0.05 1.41,-0.128 1.522,-0.345 1.598,-0.6 1.672,-0.854 1.71,-1.148 1.71,-1.479 V -1.627 -1.775 H 0.302 -1.105 c 0.004,-0.205 0.037,-0.391 0.096,-0.556 0.06,-0.166 0.148,-0.311 0.262,-0.438 0.114,-0.126 0.245,-0.22 0.391,-0.283 0.145,-0.064 0.306,-0.095 0.483,-0.095 0.126,0 0.241,0.013 0.348,0.038 0.106,0.026 0.203,0.064 0.29,0.115 0.087,0.052 0.169,0.112 0.245,0.18 0.076,0.067 0.147,0.143 0.212,0.228 L 1.438,-2.755 1.656,-2.924 C 1.481,-3.192 1.264,-3.393 1.003,-3.526 0.741,-3.66 0.437,-3.727 0.089,-3.727"
         style="fill:#263a75;fill-opacity:1;fill-rule:nonzero;stroke:none"
         id="path2402" />
    </g>
    <g
       id="g2404"
       transform="matrix(0.35277777,0,0,-0.35277777,99.890111,132.81101)">
      <path
         d="m 0,0 0.011,-0.262 0.011,-0.261 c 0.159,0.2 0.342,0.35 0.549,0.45 0.208,0.099 0.44,0.15 0.697,0.15 0.438,0 0.769,-0.124 0.991,-0.372 0.221,-0.248 0.335,-0.62 0.339,-1.115 V -2.784 -4.158 H 2.241 1.886 v 1.376 1.376 C 1.885,-1.257 1.867,-1.126 1.832,-1.016 1.798,-0.905 1.747,-0.813 1.68,-0.742 1.613,-0.67 1.527,-0.616 1.422,-0.581 1.317,-0.545 1.194,-0.527 1.053,-0.527 0.937,-0.527 0.828,-0.542 0.728,-0.573 0.626,-0.604 0.532,-0.65 0.445,-0.711 0.358,-0.773 0.281,-0.844 0.213,-0.924 0.145,-1.005 0.086,-1.095 0.037,-1.196 V -2.677 -4.158 H -0.317 -0.673 V -2.079 0 h 0.336 z"
         style="fill:#263a75;fill-opacity:1;fill-rule:nonzero;stroke:none"
         id="path2406" />
    </g>
    <g
       id="g2408"
       transform="matrix(0.35277777,0,0,-0.35277777,101.52446,132.45619)">
      <path
         d="M 0,0 V -0.503 -1.006 H 0.389 0.776 V -1.281 -1.556 H 0.389 0 v -1.29 -1.291 c 0,-0.083 0.009,-0.156 0.026,-0.219 0.018,-0.062 0.043,-0.115 0.078,-0.156 0.035,-0.042 0.082,-0.073 0.14,-0.094 0.06,-0.021 0.13,-0.032 0.214,-0.032 0.04,0 0.089,0.004 0.146,0.012 0.055,0.008 0.12,0.02 0.192,0.035 V -4.877 -5.165 C 0.702,-5.19 0.61,-5.208 0.519,-5.221 0.428,-5.234 0.338,-5.24 0.25,-5.24 c -0.159,0 -0.298,0.024 -0.418,0.072 -0.119,0.047 -0.22,0.12 -0.301,0.216 -0.081,0.096 -0.141,0.212 -0.181,0.348 -0.04,0.137 -0.061,0.293 -0.061,0.47 v 1.289 1.289 h -0.378 -0.379 v 0.275 0.275 h 0.379 0.378 V -0.503 0 h 0.356 z"
         style="fill:#263a75;fill-opacity:1;fill-rule:nonzero;stroke:none"
         id="path2410" />
    </g>
    <g
       id="g2412"
       transform="matrix(0.35277777,0,0,-0.35277777,102.80017,133.03598)">
      <path
         d="m 0,0 c -0.054,0.008 -0.11,0.015 -0.169,0.02 -0.059,0.004 -0.119,0.007 -0.182,0.007 -0.232,0 -0.428,-0.05 -0.586,-0.149 -0.159,-0.1 -0.279,-0.249 -0.363,-0.447 V -2.044 -3.52 H -1.654 -2.01 v 2.079 2.079 h 0.346 0.346 l 0.006,-0.241 0.004,-0.24 c 0.118,0.185 0.258,0.325 0.423,0.418 0.166,0.093 0.356,0.139 0.57,0.139 0.069,0 0.129,-0.004 0.182,-0.013 C -0.08,0.692 -0.036,0.678 0,0.661 V 0.33 Z"
         style="fill:#263a75;fill-opacity:1;fill-rule:nonzero;stroke:none"
         id="path2414" />
    </g>
    <g
       id="g2416"
       transform="matrix(0.35277777,0,0,-0.35277777,103.58221,132.99001)">
      <path
         d="M 0,0 C -0.144,0 -0.275,-0.026 -0.396,-0.078 -0.517,-0.13 -0.625,-0.209 -0.723,-0.313 -0.82,-0.418 -0.899,-0.543 -0.959,-0.689 -1.02,-0.836 -1.062,-1.003 -1.084,-1.191 h 1.041 1.042 v 0.026 0.027 C 0.988,-0.957 0.959,-0.796 0.91,-0.657 0.861,-0.517 0.794,-0.397 0.706,-0.298 0.619,-0.199 0.517,-0.124 0.399,-0.075 0.281,-0.025 0.148,0 0,0 m 0.089,-3.727 c -0.282,0 -0.538,0.046 -0.768,0.139 -0.228,0.092 -0.431,0.231 -0.608,0.416 -0.177,0.185 -0.31,0.401 -0.398,0.649 -0.088,0.247 -0.132,0.526 -0.132,0.836 v 0.065 0.065 c 0,0.207 0.019,0.402 0.058,0.586 0.04,0.184 0.099,0.358 0.177,0.52 0.079,0.161 0.174,0.306 0.284,0.433 0.11,0.126 0.236,0.236 0.377,0.327 0.142,0.091 0.289,0.16 0.442,0.206 C -0.325,0.561 -0.165,0.584 0,0.584 0.27,0.584 0.51,0.54 0.72,0.45 0.93,0.361 1.11,0.228 1.26,0.05 1.41,-0.128 1.522,-0.345 1.597,-0.6 1.672,-0.854 1.709,-1.148 1.709,-1.479 V -1.627 -1.775 H 0.302 -1.106 c 0.004,-0.205 0.037,-0.391 0.097,-0.556 0.06,-0.166 0.147,-0.311 0.262,-0.438 0.114,-0.126 0.244,-0.22 0.39,-0.283 0.145,-0.064 0.307,-0.095 0.483,-0.095 0.126,0 0.242,0.013 0.349,0.038 0.106,0.026 0.203,0.064 0.29,0.115 0.087,0.052 0.169,0.112 0.245,0.18 0.076,0.067 0.146,0.143 0.212,0.228 L 1.438,-2.755 1.655,-2.924 C 1.481,-3.192 1.264,-3.393 1.002,-3.526 0.741,-3.66 0.437,-3.727 0.089,-3.727"
         style="fill:#263a75;fill-opacity:1;fill-rule:nonzero;stroke:none"
         id="path2418" />
    </g>
    <g
       id="g2420"
       transform="matrix(0.35277777,0,0,-0.35277777,105.3485,133.56066)">
      <path
         d="m 0,0 c 0,-0.23 0.026,-0.438 0.079,-0.624 0.054,-0.185 0.134,-0.347 0.24,-0.486 0.108,-0.14 0.233,-0.245 0.376,-0.315 0.143,-0.07 0.304,-0.105 0.484,-0.105 0.18,0 0.342,0.036 0.486,0.107 0.143,0.07 0.268,0.176 0.375,0.318 0.106,0.142 0.186,0.312 0.239,0.51 0.053,0.198 0.079,0.425 0.079,0.679 0,0.228 -0.027,0.435 -0.081,0.62 C 2.223,0.888 2.142,1.051 2.034,1.193 1.926,1.334 1.8,1.441 1.656,1.512 1.512,1.583 1.351,1.618 1.171,1.618 0.995,1.618 0.837,1.583 0.695,1.513 0.554,1.443 0.43,1.338 0.322,1.199 0.214,1.059 0.134,0.889 0.08,0.689 0.026,0.49 0,0.26 0,0 m -0.715,0.084 c 0,0.204 0.02,0.397 0.06,0.581 0.04,0.183 0.099,0.356 0.179,0.518 0.08,0.163 0.176,0.307 0.288,0.432 0.111,0.126 0.239,0.233 0.381,0.322 0.143,0.087 0.296,0.154 0.458,0.198 0.163,0.045 0.336,0.067 0.52,0.067 0.283,0 0.539,-0.05 0.767,-0.147 C 2.168,1.957 2.369,1.81 2.544,1.614 2.72,1.418 2.851,1.189 2.938,0.929 3.025,0.668 3.068,0.375 3.068,0.05 V 0.025 0 C 3.068,-0.202 3.05,-0.395 3.011,-0.576 2.973,-0.758 2.914,-0.929 2.837,-1.089 2.76,-1.25 2.665,-1.393 2.555,-1.518 2.443,-1.644 2.316,-1.751 2.172,-1.841 2.027,-1.931 1.873,-1.998 1.707,-2.042 1.542,-2.087 1.365,-2.109 1.179,-2.109 c -0.283,0 -0.537,0.048 -0.766,0.146 -0.227,0.098 -0.43,0.245 -0.603,0.442 -0.175,0.195 -0.307,0.423 -0.394,0.682 -0.087,0.259 -0.131,0.55 -0.131,0.873 v 0.025 z"
         style="fill:#263a75;fill-opacity:1;fill-rule:nonzero;stroke:none"
         id="path2422" />
    </g>
    <g
       id="g2424"
       transform="matrix(0.35277777,0,0,-0.35277777,106.86918,134.27779)">
      <path
         d="M 0,0 V 1.804 3.608 H -0.328 -0.657 V 3.883 4.158 H -0.328 0 v 0.213 0.213 c 0,0.223 0.03,0.42 0.09,0.592 0.058,0.173 0.148,0.32 0.266,0.442 0.12,0.121 0.264,0.212 0.432,0.273 0.169,0.061 0.361,0.091 0.58,0.091 0.081,0 0.163,-0.005 0.244,-0.016 C 1.694,5.955 1.774,5.939 1.855,5.918 L 1.837,5.631 1.817,5.344 C 1.758,5.356 1.695,5.364 1.631,5.37 1.567,5.376 1.501,5.379 1.433,5.379 1.317,5.379 1.216,5.362 1.126,5.329 1.037,5.295 0.961,5.245 0.898,5.177 0.836,5.109 0.789,5.027 0.758,4.931 0.726,4.833 0.71,4.722 0.71,4.597 V 4.377 4.158 H 1.154 1.599 V 3.883 3.608 H 1.154 0.71 V 1.804 0 H 0.355 Z"
         style="fill:#263a75;fill-opacity:1;fill-rule:nonzero;stroke:none"
         id="path2426" />
    </g>
    <g
       id="g2428"
       transform="matrix(0.35277777,0,0,-0.35277777,97.530204,136.94289)">
      <path
         d="m 0,0 h -1.213 -1.212 v -0.991 -0.992 h 1.408 1.409 v -0.301 -0.301 h -1.777 -1.777 v 2.796 2.798 h 1.758 1.758 V 2.707 2.405 h -1.389 -1.39 v -0.901 -0.9 h 1.212 L 0,0.604 V 0.302 Z"
         style="fill:#263a75;fill-opacity:1;fill-rule:nonzero;stroke:none"
         id="path2430" />
    </g>
    <g
       id="g2432"
       transform="matrix(0.35277777,0,0,-0.35277777,98.445239,136.92376)">
      <path
         d="M 0,0 0.461,0.759 0.922,1.518 H 1.336 1.751 L 1.071,0.49 0.392,-0.538 1.093,-1.589 1.794,-2.64 H 1.383 0.972 l -0.481,0.778 -0.479,0.778 -0.481,-0.778 -0.48,-0.778 h -0.413 -0.413 l 0.7,1.051 0.701,1.051 -0.68,1.028 -0.679,1.028 h 0.411 0.411 l 0.455,-0.759 z"
         style="fill:#263a75;fill-opacity:1;fill-rule:nonzero;stroke:none"
         id="path2434" />
    </g>
    <g
       id="g2436"
       transform="matrix(0.35277777,0,0,-0.35277777,99.890111,137.67758)">
      <path
         d="M 0,0 C 0.126,0 0.245,0.019 0.355,0.058 0.467,0.096 0.569,0.154 0.664,0.23 0.759,0.307 0.833,0.394 0.885,0.49 0.937,0.586 0.969,0.692 0.979,0.807 H 1.315 1.651 C 1.645,0.688 1.621,0.572 1.58,0.458 1.539,0.345 1.481,0.234 1.405,0.126 1.33,0.02 1.242,-0.077 1.141,-0.163 1.04,-0.249 0.927,-0.324 0.801,-0.388 0.675,-0.452 0.545,-0.5 0.411,-0.532 0.277,-0.564 0.141,-0.58 0,-0.58 c -0.283,0 -0.538,0.047 -0.763,0.142 -0.225,0.094 -0.421,0.235 -0.589,0.424 -0.167,0.189 -0.292,0.413 -0.376,0.672 -0.083,0.258 -0.125,0.551 -0.125,0.879 v 0.06 0.059 c 0,0.203 0.019,0.394 0.056,0.574 0.037,0.18 0.093,0.349 0.167,0.506 0.074,0.158 0.165,0.297 0.272,0.42 0.106,0.122 0.229,0.227 0.368,0.314 0.139,0.087 0.291,0.153 0.455,0.196 0.165,0.043 0.342,0.065 0.53,0.065 0.234,0 0.447,-0.035 0.641,-0.105 C 0.83,3.556 1.004,3.452 1.158,3.312 1.312,3.173 1.431,3.012 1.513,2.831 1.595,2.65 1.641,2.448 1.651,2.225 H 1.315 0.979 C 0.969,2.359 0.938,2.482 0.888,2.592 0.837,2.703 0.766,2.801 0.674,2.888 0.582,2.974 0.48,3.039 0.367,3.082 0.254,3.125 0.13,3.147 -0.005,3.147 -0.185,3.147 -0.346,3.115 -0.485,3.05 -0.625,2.984 -0.745,2.887 -0.844,2.757 -0.943,2.627 -1.018,2.468 -1.067,2.28 -1.117,2.092 -1.142,1.875 -1.142,1.629 V 1.562 1.495 c 0,-0.24 0.025,-0.452 0.075,-0.636 0.048,-0.185 0.123,-0.341 0.221,-0.471 0.099,-0.129 0.218,-0.226 0.36,-0.291 C -0.346,0.032 -0.184,0 0,0"
         style="fill:#263a75;fill-opacity:1;fill-rule:nonzero;stroke:none"
         id="path2438" />
    </g>
    <g
       id="g2440"
       transform="matrix(0.35277777,0,0,-0.35277777,101.33188,136.56721)">
      <path
         d="m 0,0 c -0.143,0 -0.274,-0.026 -0.396,-0.079 -0.12,-0.052 -0.228,-0.13 -0.326,-0.235 -0.096,-0.104 -0.175,-0.229 -0.236,-0.375 -0.06,-0.147 -0.102,-0.314 -0.124,-0.502 h 1.04 1.041 v 0.026 0.027 C 0.989,-0.957 0.96,-0.797 0.911,-0.657 0.863,-0.517 0.795,-0.397 0.708,-0.298 0.621,-0.199 0.519,-0.125 0.4,-0.075 0.282,-0.025 0.149,0 0,0 m 0.089,-3.728 c -0.281,0 -0.537,0.047 -0.767,0.14 -0.229,0.092 -0.432,0.231 -0.609,0.416 -0.177,0.185 -0.309,0.401 -0.398,0.649 -0.087,0.247 -0.131,0.526 -0.131,0.836 v 0.065 0.065 c 0,0.206 0.019,0.402 0.058,0.586 0.039,0.184 0.099,0.357 0.178,0.519 0.078,0.162 0.173,0.307 0.283,0.433 0.11,0.127 0.235,0.236 0.378,0.328 0.141,0.091 0.288,0.16 0.441,0.206 C -0.324,0.561 -0.165,0.584 0,0.584 0.271,0.584 0.512,0.539 0.722,0.45 0.932,0.361 1.111,0.228 1.261,0.05 1.41,-0.128 1.523,-0.345 1.599,-0.6 1.673,-0.854 1.711,-1.148 1.711,-1.48 V -1.627 -1.775 H 0.303 -1.106 c 0.004,-0.205 0.038,-0.391 0.097,-0.556 0.06,-0.166 0.148,-0.312 0.263,-0.438 0.114,-0.126 0.244,-0.22 0.39,-0.284 0.145,-0.063 0.306,-0.094 0.483,-0.094 0.126,0 0.242,0.012 0.348,0.038 0.106,0.026 0.203,0.064 0.29,0.115 0.088,0.052 0.169,0.111 0.245,0.179 0.076,0.068 0.147,0.144 0.213,0.229 L 1.439,-2.755 1.657,-2.924 C 1.482,-3.192 1.265,-3.393 1.004,-3.526 0.742,-3.661 0.437,-3.728 0.089,-3.728"
         style="fill:#263a75;fill-opacity:1;fill-rule:nonzero;stroke:none"
         id="path2442" />
    </g>
    <g
       id="g2444"
       transform="matrix(0.35277777,0,0,-0.35277777,102.4977,137.85499)">
      <path
         d="M 0,0 H -0.355 -0.711 V 2.951 5.902 H -0.355 0 V 2.951 Z"
         style="fill:#263a75;fill-opacity:1;fill-rule:nonzero;stroke:none"
         id="path2446" />
    </g>
    <g
       id="g2448"
       transform="matrix(0.35277777,0,0,-0.35277777,103.17123,137.85499)">
      <path
         d="M 0,0 H -0.355 -0.71 V 2.951 5.902 H -0.355 0 V 2.951 Z"
         style="fill:#263a75;fill-opacity:1;fill-rule:nonzero;stroke:none"
         id="path2450" />
    </g>
    <g
       id="g2452"
       transform="matrix(0.35277777,0,0,-0.35277777,104.14997,136.56721)">
      <path
         d="m 0,0 c -0.144,0 -0.275,-0.026 -0.396,-0.079 -0.12,-0.052 -0.229,-0.13 -0.327,-0.235 -0.097,-0.104 -0.175,-0.229 -0.236,-0.375 -0.061,-0.147 -0.102,-0.314 -0.125,-0.502 h 1.042 1.041 v 0.026 0.027 c -0.01,0.181 -0.04,0.341 -0.089,0.481 -0.048,0.14 -0.116,0.26 -0.203,0.359 C 0.619,-0.199 0.518,-0.125 0.399,-0.075 0.281,-0.025 0.148,0 0,0 m 0.089,-3.728 c -0.282,0 -0.537,0.047 -0.767,0.14 -0.229,0.092 -0.431,0.231 -0.608,0.416 -0.178,0.185 -0.311,0.401 -0.399,0.649 -0.088,0.247 -0.132,0.526 -0.132,0.836 v 0.065 0.065 c 0,0.206 0.019,0.402 0.059,0.586 0.039,0.184 0.099,0.357 0.177,0.519 0.079,0.162 0.173,0.307 0.283,0.433 0.111,0.127 0.236,0.236 0.377,0.328 0.143,0.091 0.29,0.16 0.443,0.206 C -0.324,0.561 -0.165,0.584 0,0.584 0.271,0.584 0.511,0.539 0.721,0.45 0.931,0.361 1.11,0.228 1.261,0.05 1.41,-0.128 1.522,-0.345 1.598,-0.6 1.672,-0.854 1.71,-1.148 1.71,-1.48 V -1.627 -1.775 H 0.302 -1.105 c 0.003,-0.205 0.037,-0.391 0.096,-0.556 0.06,-0.166 0.148,-0.312 0.262,-0.438 0.114,-0.126 0.245,-0.22 0.391,-0.284 0.145,-0.063 0.306,-0.094 0.483,-0.094 0.125,0 0.241,0.012 0.348,0.038 0.106,0.026 0.203,0.064 0.29,0.115 0.087,0.052 0.169,0.111 0.245,0.179 0.076,0.068 0.146,0.144 0.212,0.229 L 1.438,-2.755 1.656,-2.924 C 1.481,-3.192 1.264,-3.393 1.003,-3.526 0.741,-3.661 0.437,-3.728 0.089,-3.728"
         style="fill:#263a75;fill-opacity:1;fill-rule:nonzero;stroke:none"
         id="path2454" />
    </g>
    <g
       id="g2456"
       transform="matrix(0.35277777,0,0,-0.35277777,105.28063,136.38842)">
      <path
         d="m 0,0 0.011,-0.261 0.011,-0.262 c 0.159,0.2 0.342,0.35 0.549,0.45 0.208,0.1 0.44,0.15 0.696,0.15 0.439,0 0.77,-0.124 0.992,-0.372 0.221,-0.248 0.334,-0.62 0.339,-1.115 V -2.784 -4.157 H 2.241 1.886 v 1.375 1.376 C 1.885,-1.256 1.867,-1.126 1.832,-1.015 1.798,-0.904 1.747,-0.813 1.68,-0.741 1.613,-0.67 1.527,-0.616 1.422,-0.58 1.317,-0.544 1.194,-0.527 1.053,-0.527 0.937,-0.527 0.828,-0.542 0.728,-0.573 0.626,-0.604 0.532,-0.649 0.445,-0.711 0.358,-0.772 0.28,-0.844 0.213,-0.924 0.145,-1.005 0.086,-1.095 0.037,-1.195 V -2.676 -4.157 H -0.317 -0.673 V -2.079 0 h 0.336 z"
         style="fill:#263a75;fill-opacity:1;fill-rule:nonzero;stroke:none"
         id="path2458" />
    </g>
    <g
       id="g2460"
       transform="matrix(0.35277777,0,0,-0.35277777,107.1634,137.67758)">
      <path
         d="M 0,0 C 0.127,0 0.245,0.019 0.355,0.058 0.467,0.096 0.569,0.154 0.664,0.23 0.759,0.307 0.832,0.394 0.885,0.49 0.937,0.586 0.969,0.692 0.979,0.807 H 1.315 1.651 C 1.645,0.688 1.621,0.572 1.58,0.458 1.539,0.345 1.48,0.234 1.405,0.126 1.33,0.02 1.242,-0.077 1.141,-0.163 1.04,-0.249 0.926,-0.324 0.8,-0.388 0.674,-0.452 0.544,-0.5 0.411,-0.532 0.277,-0.564 0.141,-0.58 0,-0.58 c -0.283,0 -0.538,0.047 -0.763,0.142 -0.225,0.094 -0.422,0.235 -0.589,0.424 -0.167,0.189 -0.293,0.413 -0.376,0.672 -0.083,0.258 -0.125,0.551 -0.125,0.879 v 0.06 0.059 c 0,0.203 0.019,0.394 0.056,0.574 0.037,0.18 0.093,0.349 0.167,0.506 0.074,0.158 0.165,0.297 0.272,0.42 0.106,0.122 0.229,0.227 0.368,0.314 0.138,0.087 0.291,0.153 0.455,0.196 0.164,0.043 0.341,0.065 0.53,0.065 0.234,0 0.446,-0.035 0.641,-0.105 C 0.829,3.556 1.004,3.452 1.158,3.312 1.312,3.173 1.431,3.012 1.513,2.831 1.595,2.65 1.642,2.448 1.651,2.225 H 1.315 0.979 C 0.969,2.359 0.938,2.482 0.888,2.592 0.836,2.703 0.765,2.801 0.673,2.888 0.582,2.974 0.479,3.039 0.367,3.082 0.254,3.125 0.13,3.147 -0.005,3.147 -0.186,3.147 -0.346,3.115 -0.485,3.05 -0.625,2.984 -0.744,2.887 -0.844,2.757 -0.943,2.627 -1.018,2.468 -1.067,2.28 -1.117,2.092 -1.142,1.875 -1.142,1.629 V 1.562 1.495 c 0,-0.24 0.025,-0.452 0.075,-0.636 0.048,-0.185 0.123,-0.341 0.22,-0.471 0.1,-0.129 0.219,-0.226 0.361,-0.291 C -0.346,0.032 -0.184,0 0,0"
         style="fill:#263a75;fill-opacity:1;fill-rule:nonzero;stroke:none"
         id="path2462" />
    </g>
    <g
       id="g2464"
       transform="matrix(0.35277777,0,0,-0.35277777,108.60552,136.56721)">
      <path
         d="M 0,0 C -0.144,0 -0.275,-0.026 -0.396,-0.079 -0.517,-0.131 -0.625,-0.209 -0.723,-0.314 -0.82,-0.418 -0.899,-0.543 -0.959,-0.689 -1.02,-0.836 -1.062,-1.003 -1.084,-1.191 h 1.041 1.041 v 0.026 0.027 C 0.987,-0.957 0.958,-0.797 0.91,-0.657 0.861,-0.517 0.794,-0.397 0.706,-0.298 0.619,-0.199 0.517,-0.125 0.398,-0.075 0.281,-0.025 0.147,0 0,0 m 0.088,-3.728 c -0.282,0 -0.537,0.047 -0.767,0.14 -0.229,0.092 -0.432,0.231 -0.609,0.416 -0.177,0.185 -0.31,0.401 -0.398,0.649 -0.087,0.247 -0.131,0.526 -0.131,0.836 v 0.065 0.065 c 0,0.206 0.019,0.402 0.058,0.586 0.039,0.184 0.099,0.357 0.177,0.519 0.079,0.162 0.173,0.307 0.283,0.433 0.111,0.127 0.237,0.236 0.378,0.328 0.142,0.091 0.289,0.16 0.442,0.206 C -0.325,0.561 -0.166,0.584 0,0.584 0.27,0.584 0.51,0.539 0.72,0.45 0.93,0.361 1.109,0.228 1.26,0.05 1.409,-0.128 1.521,-0.345 1.597,-0.6 1.672,-0.854 1.709,-1.148 1.709,-1.48 V -1.627 -1.775 H 0.301 -1.107 c 0.005,-0.205 0.038,-0.391 0.097,-0.556 0.06,-0.166 0.148,-0.312 0.262,-0.438 0.115,-0.126 0.245,-0.22 0.391,-0.284 0.145,-0.063 0.307,-0.094 0.483,-0.094 0.126,0 0.241,0.012 0.348,0.038 0.106,0.026 0.203,0.064 0.29,0.115 0.087,0.052 0.169,0.111 0.245,0.179 0.076,0.068 0.147,0.144 0.213,0.229 L 1.438,-2.755 1.655,-2.924 C 1.481,-3.192 1.264,-3.393 1.002,-3.526 0.74,-3.661 0.436,-3.728 0.088,-3.728"
         style="fill:#263a75;fill-opacity:1;fill-rule:nonzero;stroke:none"
         id="path2466" />
    </g>
    <g
       id="g2468"
       transform="matrix(0.35277777,0,0,-0.35277777,110.45827,137.85499)">
      <path
         d="M 0,0 H -0.355 -0.711 V 2.079 4.157 H -0.355 0 V 2.079 Z m -0.769,5.26 c 0,0.057 0.009,0.111 0.027,0.159 0.017,0.049 0.044,0.093 0.078,0.133 0.036,0.039 0.08,0.069 0.132,0.089 0.053,0.02 0.113,0.03 0.182,0.03 0.069,0 0.129,-0.01 0.182,-0.03 0.053,-0.02 0.098,-0.05 0.133,-0.089 C 0.001,5.512 0.028,5.468 0.046,5.419 0.063,5.371 0.073,5.317 0.073,5.26 0.073,5.202 0.063,5.149 0.046,5.102 0.028,5.053 0.001,5.01 -0.035,4.972 -0.07,4.933 -0.115,4.904 -0.168,4.885 -0.221,4.866 -0.281,4.856 -0.35,4.856 c -0.069,0 -0.129,0.01 -0.182,0.029 -0.052,0.019 -0.096,0.048 -0.132,0.087 -0.034,0.038 -0.061,0.081 -0.078,0.13 -0.018,0.047 -0.027,0.1 -0.027,0.158"
         style="fill:#263a75;fill-opacity:1;fill-rule:nonzero;stroke:none"
         id="path2470" />
    </g>
    <g
       id="g2472"
       transform="matrix(0.35277777,0,0,-0.35277777,111.09666,136.38842)">
      <path
         d="m 0,0 0.012,-0.261 0.01,-0.262 c 0.16,0.2 0.343,0.35 0.55,0.45 0.208,0.1 0.44,0.15 0.696,0.15 0.439,0 0.769,-0.124 0.991,-0.372 0.221,-0.248 0.334,-0.62 0.338,-1.115 V -2.784 -4.157 H 2.241 1.886 v 1.375 1.376 C 1.885,-1.256 1.867,-1.126 1.833,-1.015 1.799,-0.904 1.748,-0.813 1.681,-0.741 1.613,-0.67 1.527,-0.616 1.423,-0.58 1.318,-0.544 1.194,-0.527 1.052,-0.527 0.937,-0.527 0.829,-0.542 0.728,-0.573 0.627,-0.604 0.532,-0.649 0.445,-0.711 0.358,-0.772 0.28,-0.844 0.213,-0.924 0.145,-1.005 0.087,-1.095 0.038,-1.195 V -2.676 -4.157 H -0.317 -0.673 V -2.079 0 h 0.337 z"
         style="fill:#263a75;fill-opacity:1;fill-rule:nonzero;stroke:none"
         id="path2474" />
    </g>
    <g
       id="g2476"
       transform="matrix(0.35277777,0,0,-0.35277777,96.674789,140.44692)">
      <path
         d="M 0,0 H 0.663 1.325 C 1.522,0 1.697,0.023 1.849,0.07 1.999,0.116 2.127,0.186 2.231,0.279 2.337,0.372 2.416,0.486 2.469,0.62 2.521,0.754 2.547,0.91 2.547,1.085 2.547,1.252 2.521,1.402 2.469,1.536 2.416,1.669 2.337,1.786 2.231,1.886 2.127,1.986 2.003,2.062 1.859,2.114 1.715,2.166 1.552,2.194 1.368,2.198 H 0.685 0 V 1.099 Z m 0,-0.604 v -1.095 -1.094 h -0.368 -0.369 v 2.797 2.797 h 1.031 1.031 c 0.307,0 0.579,-0.039 0.82,-0.117 C 2.384,2.605 2.591,2.488 2.765,2.332 2.938,2.176 3.068,1.994 3.155,1.787 3.242,1.581 3.285,1.348 3.285,1.091 3.285,0.819 3.243,0.579 3.158,0.37 3.073,0.161 2.946,-0.017 2.776,-0.163 2.606,-0.31 2.399,-0.42 2.157,-0.493 1.914,-0.567 1.634,-0.604 1.317,-0.604 H 0.659 Z"
         style="fill:#263a75;fill-opacity:1;fill-rule:nonzero;stroke:none"
         id="path2478" />
    </g>
    <g
       id="g2480"
       transform="matrix(0.35277777,0,0,-0.35277777,98.686398,140.14459)">
      <path
         d="M 0,0 C -0.144,0 -0.275,-0.026 -0.396,-0.078 -0.517,-0.13 -0.625,-0.209 -0.723,-0.313 -0.82,-0.417 -0.899,-0.543 -0.959,-0.689 -1.02,-0.836 -1.062,-1.003 -1.084,-1.191 h 1.041 1.042 v 0.026 0.028 c -0.011,0.18 -0.04,0.341 -0.089,0.48 -0.049,0.14 -0.117,0.26 -0.204,0.359 C 0.619,-0.199 0.517,-0.124 0.399,-0.074 0.281,-0.025 0.148,0 0,0 m 0.088,-3.727 c -0.281,0 -0.537,0.046 -0.767,0.139 -0.228,0.092 -0.431,0.231 -0.608,0.416 -0.177,0.185 -0.31,0.401 -0.399,0.649 -0.087,0.248 -0.131,0.526 -0.131,0.836 v 0.065 0.065 c 0,0.207 0.019,0.402 0.058,0.586 0.04,0.184 0.099,0.358 0.177,0.52 0.079,0.161 0.174,0.306 0.284,0.433 0.11,0.126 0.236,0.236 0.377,0.327 0.142,0.092 0.289,0.16 0.442,0.206 C -0.325,0.561 -0.166,0.584 0,0.584 0.27,0.584 0.51,0.54 0.72,0.451 0.93,0.361 1.11,0.228 1.26,0.05 1.41,-0.128 1.522,-0.345 1.597,-0.6 1.672,-0.854 1.709,-1.147 1.709,-1.479 V -1.627 -1.775 H 0.302 -1.106 c 0.004,-0.205 0.037,-0.391 0.097,-0.556 0.06,-0.166 0.147,-0.311 0.262,-0.438 0.114,-0.126 0.244,-0.22 0.39,-0.283 0.145,-0.064 0.306,-0.095 0.483,-0.095 0.126,0 0.242,0.013 0.349,0.038 0.106,0.026 0.203,0.065 0.289,0.115 0.088,0.052 0.169,0.112 0.246,0.18 0.076,0.067 0.146,0.143 0.212,0.228 L 1.438,-2.755 1.655,-2.924 C 1.481,-3.191 1.264,-3.393 1.002,-3.526 0.741,-3.66 0.437,-3.727 0.088,-3.727"
         style="fill:#263a75;fill-opacity:1;fill-rule:nonzero;stroke:none"
         id="path2482" />
    </g>
    <g
       id="g2484"
       transform="matrix(0.35277777,0,0,-0.35277777,100.28836,140.19059)">
      <path
         d="m 0,0 c -0.054,0.009 -0.109,0.015 -0.168,0.02 -0.059,0.004 -0.119,0.007 -0.182,0.007 -0.233,0 -0.428,-0.05 -0.587,-0.149 -0.158,-0.1 -0.278,-0.249 -0.362,-0.447 V -2.044 -3.52 H -1.654 -2.01 v 2.079 2.079 h 0.346 0.346 l 0.006,-0.241 0.006,-0.24 c 0.117,0.185 0.257,0.325 0.422,0.418 0.165,0.093 0.355,0.139 0.569,0.139 0.069,0 0.13,-0.004 0.182,-0.013 C -0.08,0.692 -0.036,0.678 0,0.661 V 0.33 Z"
         style="fill:#263a75;fill-opacity:1;fill-rule:nonzero;stroke:none"
         id="path2486" />
    </g>
    <g
       id="g2488"
       transform="matrix(0.35277777,0,0,-0.35277777,101.37252,141.04326)">
      <path
         d="M 0,0 C 0,0.096 -0.018,0.181 -0.054,0.256 -0.09,0.331 -0.145,0.395 -0.217,0.447 -0.289,0.5 -0.388,0.55 -0.514,0.596 c -0.127,0.046 -0.279,0.088 -0.46,0.126 -0.179,0.039 -0.341,0.081 -0.484,0.127 -0.143,0.046 -0.267,0.096 -0.372,0.15 -0.107,0.054 -0.198,0.112 -0.276,0.176 -0.078,0.064 -0.142,0.134 -0.193,0.208 -0.051,0.074 -0.089,0.156 -0.114,0.244 -0.025,0.088 -0.038,0.184 -0.038,0.286 0,0.17 0.036,0.328 0.108,0.472 0.072,0.144 0.18,0.275 0.324,0.392 0.145,0.119 0.309,0.207 0.493,0.266 0.183,0.059 0.387,0.088 0.612,0.088 0.235,0 0.449,-0.03 0.641,-0.091 C -0.082,2.979 0.087,2.888 0.233,2.766 0.38,2.645 0.489,2.506 0.562,2.35 0.636,2.195 0.673,2.022 0.673,1.832 H 0.315 -0.042 c 0,0.098 -0.02,0.189 -0.062,0.272 C -0.146,2.188 -0.207,2.266 -0.29,2.336 -0.372,2.407 -0.466,2.459 -0.569,2.495 -0.674,2.53 -0.788,2.547 -0.914,2.547 -1.043,2.547 -1.158,2.533 -1.26,2.505 -1.361,2.477 -1.448,2.434 -1.521,2.378 -1.594,2.322 -1.648,2.257 -1.685,2.183 -1.722,2.109 -1.739,2.027 -1.739,1.936 -1.739,1.851 -1.723,1.775 -1.689,1.71 -1.655,1.646 -1.604,1.591 -1.537,1.548 -1.469,1.505 -1.373,1.462 -1.25,1.42 -1.128,1.379 -0.978,1.338 -0.8,1.298 -0.623,1.259 -0.463,1.215 -0.319,1.167 -0.175,1.12 -0.048,1.069 0.062,1.014 0.172,0.959 0.268,0.898 0.35,0.832 0.431,0.766 0.498,0.694 0.552,0.616 0.604,0.539 0.645,0.453 0.671,0.358 0.698,0.264 0.712,0.161 0.712,0.05 0.712,-0.136 0.674,-0.303 0.6,-0.452 0.525,-0.601 0.414,-0.732 0.266,-0.844 0.117,-0.956 -0.054,-1.04 -0.246,-1.096 -0.438,-1.152 -0.653,-1.18 -0.891,-1.18 c -0.166,0 -0.323,0.015 -0.47,0.044 -0.148,0.03 -0.285,0.074 -0.413,0.133 -0.128,0.059 -0.243,0.129 -0.343,0.212 -0.1,0.082 -0.187,0.176 -0.259,0.281 -0.072,0.106 -0.127,0.217 -0.163,0.331 -0.036,0.114 -0.054,0.233 -0.054,0.355 h 0.356 0.355 c 0.006,-0.119 0.033,-0.225 0.081,-0.32 0.047,-0.094 0.116,-0.176 0.205,-0.246 0.089,-0.07 0.193,-0.123 0.31,-0.157 0.117,-0.036 0.249,-0.053 0.395,-0.053 0.135,0 0.256,0.014 0.364,0.041 0.107,0.027 0.202,0.068 0.283,0.122 0.082,0.055 0.142,0.119 0.183,0.191 C -0.021,-0.173 0,-0.091 0,0"
         style="fill:#263a75;fill-opacity:1;fill-rule:nonzero;stroke:none"
         id="path2490" />
    </g>
    <g
       id="g2492"
       transform="matrix(0.35277777,0,0,-0.35277777,102.13596,140.71528)">
      <path
         d="M 0,0 C 0,-0.23 0.026,-0.438 0.08,-0.624 0.133,-0.809 0.214,-0.971 0.32,-1.11 0.428,-1.25 0.553,-1.354 0.695,-1.425 0.839,-1.495 1,-1.53 1.179,-1.53 c 0.18,0 0.342,0.036 0.486,0.107 0.144,0.07 0.269,0.176 0.374,0.318 0.107,0.142 0.187,0.312 0.239,0.51 0.054,0.198 0.08,0.425 0.08,0.679 0,0.228 -0.026,0.435 -0.081,0.62 C 2.224,0.888 2.143,1.051 2.034,1.193 1.926,1.334 1.8,1.441 1.656,1.512 1.513,1.583 1.351,1.618 1.171,1.618 0.996,1.618 0.837,1.583 0.696,1.513 0.555,1.443 0.43,1.338 0.322,1.199 0.214,1.059 0.134,0.889 0.08,0.689 0.026,0.49 0,0.26 0,0 m -0.715,0.084 c 0,0.204 0.02,0.397 0.06,0.581 0.04,0.183 0.1,0.356 0.18,0.518 0.08,0.163 0.176,0.307 0.288,0.433 0.111,0.125 0.238,0.232 0.38,0.321 C 0.336,2.025 0.489,2.091 0.652,2.135 0.815,2.18 0.988,2.202 1.171,2.202 1.454,2.202 1.71,2.153 1.938,2.055 2.168,1.957 2.37,1.81 2.545,1.614 2.72,1.418 2.852,1.189 2.938,0.929 3.025,0.668 3.069,0.375 3.069,0.05 V 0.025 0 C 3.069,-0.202 3.05,-0.395 3.011,-0.576 2.973,-0.757 2.914,-0.929 2.837,-1.089 2.759,-1.25 2.665,-1.393 2.555,-1.518 2.444,-1.644 2.316,-1.751 2.173,-1.841 2.028,-1.931 1.874,-1.998 1.708,-2.042 1.542,-2.087 1.366,-2.109 1.179,-2.109 c -0.282,0 -0.537,0.048 -0.765,0.147 -0.228,0.097 -0.43,0.244 -0.604,0.441 -0.175,0.195 -0.306,0.423 -0.394,0.682 -0.087,0.259 -0.131,0.55 -0.131,0.873 v 0.025 z"
         style="fill:#263a75;fill-opacity:1;fill-rule:nonzero;stroke:none"
         id="path2494" />
    </g>
    <g
       id="g2496"
       transform="matrix(0.35277777,0,0,-0.35277777,103.77031,139.96563)">
      <path
         d="m 0,0 0.013,-0.262 0.011,-0.261 c 0.159,0.2 0.341,0.35 0.549,0.45 0.207,0.1 0.439,0.15 0.695,0.15 0.44,0 0.77,-0.124 0.992,-0.372 0.221,-0.248 0.334,-0.62 0.338,-1.115 V -2.784 -4.158 H 2.243 1.888 v 1.376 1.376 c -0.002,0.15 -0.02,0.28 -0.054,0.39 C 1.8,-0.905 1.749,-0.813 1.682,-0.742 1.614,-0.67 1.528,-0.616 1.424,-0.581 1.319,-0.545 1.195,-0.527 1.054,-0.527 0.938,-0.527 0.83,-0.542 0.729,-0.573 0.627,-0.604 0.533,-0.65 0.446,-0.711 0.359,-0.773 0.282,-0.844 0.214,-0.924 0.146,-1.005 0.088,-1.095 0.038,-1.195 V -2.677 -4.158 H -0.316 -0.671 V -2.079 0 h 0.335 z"
         style="fill:#263a75;fill-opacity:1;fill-rule:nonzero;stroke:none"
         id="path2498" />
    </g>
    <g
       id="g2500"
       transform="matrix(0.35277777,0,0,-0.35277777,105.55452,141.24116)">
      <path
         d="m 0,0 c 0.11,0 0.22,0.015 0.325,0.043 0.106,0.029 0.208,0.072 0.308,0.13 0.1,0.057 0.186,0.124 0.259,0.199 0.072,0.075 0.13,0.158 0.175,0.251 V 1.049 1.475 H 0.789 0.511 C 0.075,1.475 -0.252,1.411 -0.47,1.284 -0.687,1.156 -0.796,0.965 -0.796,0.71 -0.796,0.599 -0.777,0.5 -0.74,0.413 -0.703,0.326 -0.647,0.251 -0.573,0.188 -0.499,0.125 -0.414,0.079 -0.318,0.047 -0.224,0.016 -0.117,0 0,0 M 1.179,-0.542 C 1.158,-0.501 1.14,-0.444 1.123,-0.371 1.106,-0.298 1.092,-0.209 1.079,-0.104 0.914,-0.275 0.732,-0.404 0.535,-0.49 0.338,-0.576 0.125,-0.619 -0.104,-0.619 c -0.206,0 -0.392,0.029 -0.56,0.087 -0.168,0.058 -0.317,0.145 -0.448,0.261 -0.132,0.116 -0.231,0.248 -0.296,0.395 -0.066,0.147 -0.099,0.309 -0.099,0.487 0,0.216 0.042,0.409 0.124,0.576 0.082,0.168 0.205,0.313 0.37,0.432 0.164,0.12 0.363,0.21 0.594,0.27 0.232,0.06 0.496,0.09 0.795,0.09 H 0.722 1.067 V 2.142 2.305 C 1.067,2.429 1.049,2.541 1.012,2.64 0.975,2.739 0.919,2.825 0.845,2.899 0.771,2.972 0.679,3.028 0.569,3.064 0.459,3.101 0.332,3.12 0.187,3.12 0.061,3.12 -0.056,3.104 -0.162,3.072 -0.269,3.04 -0.364,2.992 -0.449,2.928 -0.536,2.864 -0.601,2.793 -0.644,2.715 -0.687,2.638 -0.708,2.554 -0.708,2.463 h -0.357 -0.358 c 0,0.104 0.019,0.206 0.056,0.306 0.037,0.1 0.093,0.199 0.166,0.295 0.073,0.097 0.16,0.184 0.261,0.26 0.099,0.076 0.212,0.143 0.338,0.199 0.126,0.057 0.258,0.099 0.397,0.127 0.139,0.028 0.284,0.042 0.435,0.042 0.24,0 0.453,-0.029 0.64,-0.089 C 1.059,3.543 1.22,3.453 1.355,3.333 1.491,3.213 1.595,3.071 1.665,2.906 1.735,2.741 1.773,2.554 1.778,2.343 V 1.387 0.43 c 0,-0.191 0.012,-0.362 0.036,-0.514 0.025,-0.151 0.061,-0.284 0.11,-0.396 V -0.511 -0.542 H 1.552 Z"
         style="fill:#263a75;fill-opacity:1;fill-rule:nonzero;stroke:none"
         id="path2502" />
    </g>
    <g
       id="g2504"
       transform="matrix(0.35277777,0,0,-0.35277777,106.84749,141.43237)">
      <path
         d="M 0,0 H -0.355 -0.711 V 2.951 5.902 H -0.355 0 V 2.951 Z"
         style="fill:#263a75;fill-opacity:1;fill-rule:nonzero;stroke:none"
         id="path2506" />
    </g>
    <g
       id="g2508"
       transform="matrix(0.35277777,0,0,-0.35277777,107.52098,141.43237)">
      <path
         d="M 0,0 H -0.355 -0.711 V 2.079 4.158 H -0.355 0 V 2.079 Z m -0.769,5.26 c 0,0.058 0.009,0.111 0.028,0.159 0.017,0.049 0.044,0.093 0.079,0.133 0.035,0.039 0.078,0.07 0.131,0.09 0.052,0.02 0.112,0.029 0.181,0.029 0.07,0 0.131,-0.009 0.183,-0.029 0.053,-0.02 0.097,-0.051 0.132,-0.09 C 0.001,5.512 0.028,5.468 0.046,5.419 0.064,5.371 0.073,5.318 0.073,5.26 0.073,5.203 0.064,5.15 0.046,5.102 0.028,5.054 0.001,5.01 -0.035,4.972 -0.07,4.934 -0.114,4.905 -0.167,4.885 -0.219,4.866 -0.28,4.856 -0.35,4.856 c -0.069,0 -0.129,0.01 -0.181,0.029 -0.053,0.02 -0.096,0.049 -0.131,0.087 C -0.697,5.01 -0.724,5.054 -0.741,5.102 -0.76,5.15 -0.769,5.203 -0.769,5.26"
         style="fill:#263a75;fill-opacity:1;fill-rule:nonzero;stroke:none"
         id="path2510" />
    </g>
    <g
       id="g2512"
       transform="matrix(0.35277777,0,0,-0.35277777,108.77637,141.04326)">
      <path
         d="m 0,0 c 0,0.096 -0.019,0.181 -0.055,0.256 -0.036,0.075 -0.09,0.139 -0.162,0.191 -0.072,0.053 -0.172,0.103 -0.298,0.149 -0.127,0.046 -0.28,0.088 -0.46,0.126 -0.179,0.039 -0.34,0.081 -0.483,0.127 -0.144,0.046 -0.268,0.096 -0.373,0.15 -0.106,0.054 -0.197,0.112 -0.275,0.176 -0.079,0.064 -0.143,0.134 -0.194,0.208 -0.051,0.074 -0.089,0.156 -0.114,0.244 -0.025,0.088 -0.038,0.184 -0.038,0.286 0,0.17 0.036,0.328 0.108,0.472 0.073,0.144 0.181,0.275 0.324,0.392 0.145,0.119 0.309,0.207 0.493,0.266 0.184,0.059 0.388,0.088 0.612,0.088 0.236,0 0.449,-0.03 0.641,-0.091 C -0.084,2.979 0.085,2.888 0.232,2.766 0.379,2.645 0.488,2.506 0.562,2.35 0.636,2.195 0.672,2.022 0.672,1.832 H 0.314 -0.043 c 0,0.098 -0.02,0.189 -0.061,0.272 C -0.146,2.188 -0.207,2.266 -0.29,2.336 -0.373,2.407 -0.466,2.459 -0.57,2.495 -0.675,2.53 -0.789,2.547 -0.915,2.547 -1.044,2.547 -1.159,2.533 -1.261,2.505 -1.362,2.477 -1.449,2.434 -1.521,2.378 -1.595,2.322 -1.649,2.257 -1.687,2.183 -1.723,2.109 -1.741,2.027 -1.741,1.936 -1.741,1.851 -1.724,1.775 -1.69,1.71 -1.656,1.646 -1.604,1.591 -1.537,1.548 -1.469,1.505 -1.374,1.462 -1.251,1.42 -1.129,1.379 -0.979,1.338 -0.802,1.298 -0.624,1.259 -0.464,1.215 -0.319,1.167 -0.176,1.12 -0.049,1.069 0.062,1.014 0.171,0.959 0.268,0.898 0.349,0.832 0.431,0.766 0.498,0.694 0.552,0.616 0.604,0.539 0.645,0.453 0.671,0.358 0.697,0.264 0.711,0.161 0.711,0.05 0.711,-0.136 0.674,-0.303 0.6,-0.452 0.524,-0.601 0.413,-0.732 0.265,-0.844 0.116,-0.956 -0.055,-1.04 -0.247,-1.096 -0.44,-1.152 -0.655,-1.18 -0.892,-1.18 c -0.167,0 -0.323,0.015 -0.47,0.044 -0.148,0.03 -0.285,0.074 -0.413,0.133 -0.128,0.059 -0.243,0.129 -0.343,0.212 -0.1,0.082 -0.187,0.176 -0.259,0.281 -0.072,0.106 -0.126,0.217 -0.162,0.331 -0.036,0.114 -0.055,0.233 -0.055,0.355 h 0.356 0.355 c 0.006,-0.119 0.033,-0.225 0.081,-0.32 0.048,-0.094 0.116,-0.176 0.205,-0.246 0.089,-0.07 0.193,-0.123 0.31,-0.157 0.118,-0.036 0.249,-0.053 0.395,-0.053 0.135,0 0.256,0.014 0.364,0.041 0.108,0.027 0.203,0.068 0.284,0.122 0.081,0.055 0.142,0.119 0.183,0.191 C -0.021,-0.173 0,-0.091 0,0"
         style="fill:#263a75;fill-opacity:1;fill-rule:nonzero;stroke:none"
         id="path2514" />
    </g>
    <g
       id="g2516"
       transform="matrix(0.35277777,0,0,-0.35277777,109.93119,140.14459)">
      <path
         d="m 0,0 c -0.144,0 -0.275,-0.026 -0.396,-0.078 -0.12,-0.052 -0.229,-0.131 -0.327,-0.235 -0.096,-0.104 -0.175,-0.23 -0.236,-0.376 -0.061,-0.147 -0.102,-0.314 -0.125,-0.502 h 1.041 1.041 v 0.026 0.028 c -0.01,0.18 -0.039,0.341 -0.088,0.48 -0.049,0.14 -0.116,0.26 -0.203,0.359 C 0.62,-0.199 0.517,-0.124 0.399,-0.074 0.281,-0.025 0.148,0 0,0 m 0.088,-3.727 c -0.281,0 -0.537,0.046 -0.767,0.139 -0.228,0.092 -0.431,0.231 -0.608,0.416 -0.177,0.185 -0.31,0.401 -0.398,0.649 -0.088,0.248 -0.132,0.526 -0.132,0.836 v 0.065 0.065 c 0,0.207 0.019,0.402 0.059,0.586 0.039,0.184 0.098,0.358 0.177,0.52 0.078,0.161 0.173,0.306 0.283,0.433 0.11,0.126 0.236,0.236 0.377,0.327 0.143,0.092 0.29,0.16 0.443,0.206 C -0.324,0.561 -0.165,0.584 0,0.584 0.271,0.584 0.511,0.54 0.721,0.451 0.931,0.361 1.11,0.228 1.26,0.05 1.409,-0.128 1.522,-0.345 1.597,-0.6 1.672,-0.854 1.71,-1.147 1.71,-1.479 V -1.627 -1.775 H 0.302 -1.106 c 0.004,-0.205 0.037,-0.391 0.097,-0.556 0.06,-0.166 0.147,-0.311 0.261,-0.438 0.115,-0.126 0.245,-0.22 0.392,-0.283 0.145,-0.064 0.306,-0.095 0.483,-0.095 0.125,0 0.241,0.013 0.348,0.038 0.105,0.026 0.202,0.065 0.289,0.115 0.087,0.052 0.169,0.112 0.245,0.18 0.077,0.067 0.147,0.143 0.213,0.228 L 1.438,-2.755 1.656,-2.924 C 1.481,-3.191 1.264,-3.393 1.002,-3.526 0.741,-3.66 0.437,-3.727 0.088,-3.727"
         style="fill:#263a75;fill-opacity:1;fill-rule:nonzero;stroke:none"
         id="path2518" />
    </g>
    <g
       id="g2520"
       transform="matrix(0.35277777,0,0,-0.35277777,111.01397,140.71528)">
      <path
         d="m 0,0 c 0,-0.235 0.024,-0.446 0.073,-0.63 0.049,-0.184 0.122,-0.344 0.219,-0.476 0.098,-0.134 0.214,-0.234 0.348,-0.3 0.134,-0.067 0.288,-0.1 0.46,-0.1 0.224,0 0.42,0.05 0.584,0.152 0.165,0.101 0.298,0.252 0.403,0.455 V 0.056 1.01 C 1.98,1.207 1.846,1.354 1.683,1.451 1.52,1.549 1.327,1.598 1.107,1.598 0.933,1.598 0.778,1.564 0.643,1.498 0.506,1.43 0.39,1.33 0.292,1.195 0.195,1.06 0.122,0.894 0.073,0.694 0.024,0.495 0,0.264 0,0 m -0.71,0.081 c 0,0.319 0.038,0.606 0.113,0.863 0.076,0.256 0.189,0.481 0.34,0.676 0.152,0.193 0.325,0.339 0.524,0.436 C 0.464,2.153 0.686,2.202 0.93,2.202 1.173,2.202 1.392,2.16 1.584,2.077 1.776,1.993 1.944,1.868 2.087,1.702 V 2.786 3.869 H 2.442 2.798 V 0.918 -2.033 H 2.471 2.145 L 2.127,-1.81 2.109,-1.586 C 1.968,-1.761 1.797,-1.892 1.6,-1.979 1.401,-2.066 1.176,-2.109 0.922,-2.109 c -0.241,0 -0.459,0.049 -0.655,0.148 -0.197,0.098 -0.371,0.246 -0.522,0.443 -0.152,0.198 -0.266,0.425 -0.342,0.683 -0.075,0.257 -0.113,0.544 -0.113,0.862 v 0.027 z"
         style="fill:#263a75;fill-opacity:1;fill-rule:nonzero;stroke:none"
         id="path2522" />
    </g>
    <g
       id="g2524"
       transform="matrix(0.35277777,0,0,-0.35277777,96.7506,143.03589)">
      <path
         d="M 0,0 0.915,-2.283 1.829,-4.565 2.744,-2.283 3.658,0 H 4.137 4.615 V -2.797 -5.595 H 4.246 3.877 v 1.09 1.089 L 3.912,-2.241 3.947,-1.065 3.028,-3.33 2.109,-5.595 H 1.827 1.545 l -0.917,2.26 -0.916,2.259 0.036,-1.17 0.037,-1.17 v -1.089 -1.09 H -0.583 -0.952 V -2.797 0 h 0.475 z"
         style="fill:#263a75;fill-opacity:1;fill-rule:nonzero;stroke:none"
         id="path2526" />
    </g>
    <g
       id="g2528"
       transform="matrix(0.35277777,0,0,-0.35277777,99.376431,143.72183)">
      <path
         d="m 0,0 c -0.144,0 -0.275,-0.026 -0.396,-0.079 -0.121,-0.052 -0.229,-0.13 -0.327,-0.234 -0.096,-0.105 -0.175,-0.23 -0.236,-0.376 -0.06,-0.147 -0.102,-0.314 -0.124,-0.502 h 1.041 1.04 v 0.026 0.027 C 0.988,-0.957 0.959,-0.797 0.91,-0.657 0.862,-0.517 0.794,-0.397 0.707,-0.298 0.62,-0.199 0.518,-0.125 0.399,-0.075 0.281,-0.025 0.148,0 0,0 m 0.088,-3.728 c -0.281,0 -0.537,0.047 -0.767,0.14 -0.229,0.092 -0.432,0.231 -0.609,0.416 -0.177,0.185 -0.309,0.401 -0.398,0.649 -0.087,0.247 -0.131,0.526 -0.131,0.836 v 0.065 0.065 c 0,0.207 0.019,0.402 0.058,0.586 0.039,0.184 0.099,0.357 0.178,0.519 0.078,0.162 0.173,0.307 0.283,0.433 0.11,0.127 0.236,0.236 0.378,0.328 0.141,0.091 0.288,0.16 0.441,0.206 C -0.325,0.561 -0.166,0.584 0,0.584 0.271,0.584 0.511,0.54 0.721,0.45 0.931,0.361 1.11,0.228 1.26,0.05 1.41,-0.128 1.522,-0.345 1.598,-0.6 1.672,-0.854 1.71,-1.148 1.71,-1.48 V -1.627 -1.775 H 0.302 -1.107 c 0.005,-0.205 0.038,-0.391 0.097,-0.556 0.06,-0.166 0.148,-0.312 0.263,-0.438 0.114,-0.126 0.244,-0.22 0.39,-0.284 0.145,-0.063 0.306,-0.094 0.483,-0.094 0.126,0 0.242,0.012 0.348,0.038 0.106,0.026 0.203,0.064 0.29,0.115 0.088,0.052 0.169,0.111 0.245,0.179 0.076,0.068 0.147,0.144 0.213,0.229 L 1.439,-2.755 1.656,-2.924 C 1.481,-3.192 1.264,-3.393 1.003,-3.526 0.741,-3.661 0.437,-3.728 0.088,-3.728"
         style="fill:#263a75;fill-opacity:1;fill-rule:nonzero;stroke:none"
         id="path2530" />
    </g>
    <g
       id="g2532"
       transform="matrix(0.35277777,0,0,-0.35277777,100.45925,144.29248)">
      <path
         d="m 0,0 c 0,-0.236 0.024,-0.446 0.073,-0.63 0.049,-0.185 0.121,-0.344 0.219,-0.477 0.097,-0.133 0.213,-0.233 0.348,-0.3 0.134,-0.066 0.288,-0.1 0.459,-0.1 0.225,0 0.421,0.051 0.585,0.152 0.165,0.102 0.299,0.253 0.403,0.456 V 0.056 1.01 C 1.98,1.206 1.846,1.353 1.682,1.451 1.519,1.549 1.327,1.598 1.106,1.598 0.933,1.598 0.777,1.564 0.642,1.497 0.506,1.43 0.389,1.329 0.292,1.195 0.194,1.06 0.122,0.893 0.073,0.694 0.024,0.495 0,0.264 0,0 m -0.711,0.081 c 0,0.319 0.038,0.606 0.113,0.863 0.077,0.256 0.19,0.481 0.34,0.675 0.152,0.194 0.326,0.34 0.524,0.437 0.198,0.097 0.42,0.146 0.664,0.146 0.243,0 0.462,-0.042 0.654,-0.126 C 1.776,1.993 1.944,1.868 2.087,1.702 V 2.786 3.869 H 2.442 2.797 V 0.918 -2.033 H 2.471 2.144 L 2.126,-1.81 2.109,-1.587 C 1.967,-1.761 1.797,-1.892 1.6,-1.979 1.401,-2.066 1.176,-2.11 0.922,-2.11 c -0.24,0 -0.459,0.049 -0.655,0.148 -0.197,0.099 -0.371,0.247 -0.522,0.444 -0.152,0.197 -0.266,0.425 -0.342,0.682 -0.076,0.258 -0.114,0.545 -0.114,0.863 v 0.027 z"
         style="fill:#263a75;fill-opacity:1;fill-rule:nonzero;stroke:none"
         id="path2534" />
    </g>
    <g
       id="g2536"
       transform="matrix(0.35277777,0,0,-0.35277777,102.10771,145.00961)">
      <path
         d="M 0,0 H -0.356 -0.712 V 2.079 4.157 H -0.356 0 V 2.079 Z m -0.769,5.26 c 0,0.058 0.009,0.111 0.027,0.159 0.016,0.049 0.043,0.093 0.078,0.133 0.035,0.039 0.079,0.069 0.132,0.089 0.052,0.02 0.113,0.03 0.181,0.03 0.07,0 0.13,-0.01 0.183,-0.03 0.053,-0.02 0.097,-0.05 0.133,-0.089 C 0,5.512 0.027,5.468 0.045,5.419 0.063,5.371 0.072,5.318 0.072,5.26 0.072,5.202 0.063,5.149 0.045,5.102 0.027,5.053 0,5.01 -0.035,4.972 -0.071,4.934 -0.115,4.904 -0.168,4.885 -0.221,4.866 -0.281,4.856 -0.351,4.856 c -0.068,0 -0.129,0.01 -0.181,0.029 -0.053,0.019 -0.097,0.049 -0.132,0.087 -0.035,0.038 -0.062,0.081 -0.078,0.13 -0.018,0.047 -0.027,0.1 -0.027,0.158"
         style="fill:#263a75;fill-opacity:1;fill-rule:nonzero;stroke:none"
         id="path2538" />
    </g>
    <g
       id="g2540"
       transform="matrix(0.35277777,0,0,-0.35277777,103.09679,144.83216)">
      <path
         d="M 0,0 C 0.127,0 0.246,0.019 0.356,0.058 0.468,0.096 0.57,0.154 0.665,0.23 0.76,0.308 0.833,0.394 0.886,0.49 0.937,0.586 0.97,0.692 0.979,0.807 H 1.316 1.653 C 1.646,0.688 1.622,0.572 1.581,0.458 1.54,0.345 1.482,0.234 1.406,0.127 1.331,0.02 1.243,-0.077 1.142,-0.163 1.041,-0.249 0.928,-0.324 0.802,-0.387 0.675,-0.452 0.545,-0.5 0.412,-0.532 0.278,-0.564 0.142,-0.58 0,-0.58 c -0.282,0 -0.536,0.047 -0.762,0.142 -0.225,0.094 -0.422,0.235 -0.589,0.424 -0.167,0.189 -0.292,0.413 -0.376,0.672 -0.083,0.258 -0.125,0.551 -0.125,0.879 v 0.06 0.06 c 0,0.202 0.019,0.393 0.056,0.573 0.037,0.18 0.093,0.349 0.168,0.506 0.073,0.158 0.164,0.297 0.271,0.42 0.106,0.122 0.229,0.227 0.368,0.314 0.139,0.087 0.291,0.153 0.455,0.196 0.164,0.043 0.341,0.065 0.53,0.065 0.233,0 0.447,-0.035 0.641,-0.105 C 0.83,3.557 1.004,3.452 1.158,3.313 1.313,3.173 1.432,3.012 1.514,2.831 1.597,2.65 1.643,2.448 1.653,2.226 H 1.316 0.979 C 0.97,2.36 0.938,2.482 0.888,2.592 0.837,2.703 0.766,2.801 0.675,2.888 0.583,2.974 0.48,3.039 0.367,3.083 0.255,3.125 0.131,3.147 -0.004,3.147 -0.185,3.147 -0.345,3.115 -0.484,3.05 -0.624,2.984 -0.743,2.887 -0.843,2.757 -0.942,2.627 -1.017,2.468 -1.066,2.28 -1.116,2.092 -1.141,1.875 -1.141,1.629 V 1.562 1.495 c 0,-0.24 0.025,-0.452 0.075,-0.636 0.048,-0.184 0.123,-0.341 0.221,-0.471 0.099,-0.129 0.219,-0.226 0.36,-0.291 C -0.345,0.033 -0.183,0 0,0"
         style="fill:#263a75;fill-opacity:1;fill-rule:nonzero;stroke:none"
         id="path2542" />
    </g>
    <g
       id="g2544"
       transform="matrix(0.35277777,0,0,-0.35277777,104.23404,145.00961)">
      <path
         d="M 0,0 H -0.355 -0.71 V 2.079 4.157 H -0.355 0 V 2.079 Z m -0.769,5.26 c 0,0.058 0.01,0.111 0.028,0.159 0.017,0.049 0.044,0.093 0.078,0.133 0.035,0.039 0.079,0.069 0.132,0.089 0.052,0.02 0.113,0.03 0.182,0.03 0.069,0 0.129,-0.01 0.182,-0.03 0.052,-0.02 0.097,-0.05 0.133,-0.089 C 0.001,5.512 0.028,5.468 0.046,5.419 0.064,5.371 0.073,5.318 0.073,5.26 0.073,5.202 0.064,5.149 0.046,5.102 0.028,5.053 0.001,5.01 -0.034,4.972 -0.07,4.934 -0.115,4.904 -0.167,4.885 -0.22,4.866 -0.28,4.856 -0.349,4.856 c -0.069,0 -0.13,0.01 -0.182,0.029 -0.053,0.019 -0.097,0.049 -0.132,0.087 -0.034,0.038 -0.061,0.081 -0.078,0.13 -0.018,0.047 -0.028,0.1 -0.028,0.158"
         style="fill:#263a75;fill-opacity:1;fill-rule:nonzero;stroke:none"
         id="path2546" />
    </g>
    <g
       id="g2548"
       transform="matrix(0.35277777,0,0,-0.35277777,104.87274,143.543)">
      <path
         d="m 0,0 0.011,-0.261 0.011,-0.261 c 0.159,0.199 0.342,0.349 0.549,0.449 0.208,0.1 0.44,0.15 0.697,0.15 0.438,0 0.769,-0.124 0.991,-0.372 0.22,-0.247 0.334,-0.62 0.338,-1.115 V -2.784 -4.157 H 2.241 1.886 v 1.375 1.376 c -10e-4,0.15 -0.019,0.28 -0.053,0.391 -0.034,0.111 -0.086,0.202 -0.152,0.274 -0.068,0.072 -0.154,0.125 -0.258,0.161 -0.106,0.036 -0.229,0.053 -0.371,0.053 -0.115,0 -0.224,-0.015 -0.324,-0.046 C 0.626,-0.603 0.532,-0.649 0.445,-0.711 0.358,-0.772 0.28,-0.843 0.213,-0.924 0.145,-1.005 0.086,-1.095 0.038,-1.195 V -2.676 -4.157 H -0.317 -0.674 V -2.079 0 h 0.337 z"
         style="fill:#263a75;fill-opacity:1;fill-rule:nonzero;stroke:none"
         id="path2550" />
    </g>
    <g
       id="g2552"
       transform="matrix(0.35277777,0,0,-0.35277777,106.74448,143.72183)">
      <path
         d="m 0,0 c -0.144,0 -0.275,-0.026 -0.396,-0.079 -0.121,-0.052 -0.229,-0.13 -0.326,-0.234 -0.097,-0.105 -0.176,-0.23 -0.236,-0.376 -0.061,-0.147 -0.103,-0.314 -0.125,-0.502 h 1.041 1.041 v 0.026 0.027 C 0.988,-0.957 0.959,-0.797 0.91,-0.657 0.862,-0.517 0.794,-0.397 0.707,-0.298 0.62,-0.199 0.518,-0.125 0.399,-0.075 0.281,-0.025 0.148,0 0,0 m 0.088,-3.728 c -0.281,0 -0.537,0.047 -0.767,0.14 -0.229,0.092 -0.432,0.231 -0.609,0.416 -0.176,0.185 -0.309,0.401 -0.398,0.649 -0.087,0.247 -0.131,0.526 -0.131,0.836 v 0.065 0.065 c 0,0.207 0.019,0.402 0.058,0.586 0.04,0.184 0.099,0.357 0.178,0.519 0.079,0.162 0.173,0.307 0.283,0.433 0.111,0.127 0.236,0.236 0.378,0.328 0.142,0.091 0.289,0.16 0.442,0.206 C -0.324,0.561 -0.165,0.584 0,0.584 0.271,0.584 0.511,0.54 0.721,0.45 0.931,0.361 1.11,0.228 1.26,0.05 1.41,-0.128 1.522,-0.345 1.598,-0.6 1.673,-0.854 1.71,-1.148 1.71,-1.48 V -1.627 -1.775 H 0.302 -1.107 c 0.005,-0.205 0.038,-0.391 0.097,-0.556 0.061,-0.166 0.148,-0.312 0.263,-0.438 0.114,-0.126 0.244,-0.22 0.39,-0.284 0.146,-0.063 0.307,-0.094 0.484,-0.094 0.125,0 0.241,0.012 0.348,0.038 0.105,0.026 0.202,0.064 0.29,0.115 0.087,0.052 0.168,0.111 0.244,0.179 0.077,0.068 0.147,0.144 0.213,0.229 L 1.439,-2.755 1.656,-2.924 C 1.482,-3.192 1.264,-3.393 1.003,-3.526 0.741,-3.661 0.437,-3.728 0.088,-3.728"
         style="fill:#263a75;fill-opacity:1;fill-rule:nonzero;stroke:none"
         id="path2554" />
    </g>
    <path
       d="M 117.22632,124.65902 H 92.889236 v 24.33673 h 24.337084 z m -0.42933,23.90775 H 93.318567 v -23.47806 h 23.478423 z"
       style="fill:#e7b7c4;fill-opacity:1;fill-rule:nonzero;stroke:none;stroke-width:0.352778"
       id="path2556" />
    <path
       d="M 91.562792,148.99575 H 67.226064 v -24.33673 h 24.336728 z"
       style="fill:#263a75;fill-opacity:1;fill-rule:nonzero;stroke:none;stroke-width:0.352778"
       id="path2558" />
    <g
       id="g2560"
       transform="matrix(0.35277777,0,0,-0.35277777,70.979373,140.66)">
      <path
         d="M 0,0 C 0.064,-0.341 0.392,-0.565 0.734,-0.502 1.075,-0.438 1.3,-0.11 1.237,0.23 0.884,2.133 0.98,1.661 0.98,18.706 c 0,1.901 0.353,3.821 1.104,5.667 C 2.215,24.694 2.06,25.06 1.738,25.19 1.416,25.321 1.049,25.166 0.918,24.845 0.104,22.845 -0.277,20.762 -0.277,18.706 -0.277,2.288 -0.386,2.056 0,0"
         style="fill:#e3adbb;fill-opacity:1;fill-rule:nonzero;stroke:none"
         id="path2562" />
    </g>
    <g
       id="g2564"
       transform="matrix(0.35277777,0,0,-0.35277777,74.790361,129.79518)">
      <path
         d="m 0,0 c -4.723,-2.054 -7.935,-6.737 -7.936,-12.092 v -6.278 c 0,-0.347 0.282,-0.628 0.629,-0.628 0.348,0 0.629,0.281 0.629,0.628 v 6.278 c 0,4.846 2.907,9.081 7.18,10.941 0.319,0.138 0.465,0.508 0.326,0.826 C 0.689,-0.007 0.318,0.139 0,0"
         style="fill:#e3adbb;fill-opacity:1;fill-rule:nonzero;stroke:none"
         id="path2566" />
    </g>
    <g
       id="g2568"
       transform="matrix(0.35277777,0,0,-0.35277777,73.791612,143.27119)">
      <path
         d="m 0,0 c 0.274,-0.213 0.669,-0.164 0.883,0.11 0.213,0.274 0.163,0.668 -0.111,0.881 -2.88,2.238 -4.618,5.672 -4.619,9.422 v 6.277 c 0,0.348 -0.281,0.628 -0.629,0.628 -0.347,0 -0.628,-0.28 -0.628,-0.628 V 10.413 C -5.105,6.272 -3.18,2.468 0,0"
         style="fill:#e3adbb;fill-opacity:1;fill-rule:nonzero;stroke:none"
         id="path2570" />
    </g>
    <g
       id="g2572"
       transform="matrix(0.35277777,0,0,-0.35277777,76.350626,128.30967)">
      <path
         d="m 0,0 c -4.989,-0.265 -9.799,-2.8 -12.782,-7.282 -0.192,-0.289 -0.113,-0.678 0.177,-0.87 0.289,-0.192 0.679,-0.114 0.871,0.175 2.743,4.123 7.155,6.457 11.734,6.72 z"
         style="fill:#e3adbb;fill-opacity:1;fill-rule:nonzero;stroke:none"
         id="path2574" />
    </g>
    <g
       id="g2576"
       transform="matrix(0.35277777,0,0,-0.35277777,76.350626,129.42036)">
      <path
         d="m 0,0 c -0.418,-0.027 -0.838,-0.07 -1.262,-0.138 -0.342,-0.055 -0.576,-0.377 -0.521,-0.719 0.055,-0.343 0.378,-0.576 0.721,-0.52 0.356,0.057 0.71,0.093 1.062,0.118 z"
         style="fill:#e3adbb;fill-opacity:1;fill-rule:nonzero;stroke:none"
         id="path2578" />
    </g>
    <g
       id="g2580"
       transform="matrix(0.35277777,0,0,-0.35277777,75.489531,140.4755)">
      <path
         d="m 0,0 c 0.513,-0.908 1.394,-1.582 2.441,-1.823 v 1.306 C 1.836,-0.3 1.338,0.14 1.049,0.704 0.873,1.046 -0.308,0.544 0,0"
         style="fill:#e3adbb;fill-opacity:1;fill-rule:nonzero;stroke:none"
         id="path2582" />
    </g>
    <g
       id="g2584"
       transform="matrix(0.35277777,0,0,-0.35277777,76.350626,142.68604)">
      <path
         d="m 0,0 c -4.424,0.43 -7.958,4.149 -7.956,8.754 0,3.099 2.511,5.649 5.66,5.65 0.816,0 1.592,-0.177 2.296,-0.489 v 1.351 c -1.484,0.526 -3.17,0.557 -4.812,-0.084 v 9.267 c 0.002,2.917 2.167,5.184 4.812,5.588 v 1.271 c -3.335,-0.413 -6.069,-3.254 -6.069,-6.849 v -9.921 c -0.741,-0.483 -1.382,-1.102 -1.889,-1.824 -0.01,7.986 -0.046,11.291 0.055,12.668 0.296,3.828 3.551,7.401 7.903,7.816 v 1.261 C -4.208,34.107 -7.665,31.177 -8.809,27.278 -9.359,25.427 -9.214,25.864 -9.214,8.754 -9.212,4.174 -6.151,0.331 -1.986,-0.887 -1.321,-1.082 -0.657,-1.201 0,-1.258 Z"
         style="fill:#e3adbb;fill-opacity:1;fill-rule:nonzero;stroke:none"
         id="path2586" />
    </g>
    <g
       id="g2588"
       transform="matrix(0.35277777,0,0,-0.35277777,76.350626,132.76709)">
      <path
         d="m 0,0 c -1.671,-0.384 -2.918,-1.872 -2.924,-3.655 -10e-4,-0.28 -10e-4,-5.799 -10e-4,-6.291 0,-0.346 0.282,-0.627 0.629,-0.627 0.347,0 0.629,0.281 0.629,0.627 v 6.279 c 0,1.158 0.738,2.015 1.667,2.352 z"
         style="fill:#e3adbb;fill-opacity:1;fill-rule:nonzero;stroke:none"
         id="path2590" />
    </g>
    <g
       id="g2592"
       transform="matrix(0.35277777,0,0,-0.35277777,76.350626,143.79796)">
      <path
         d="M 0,0 C -1.304,0.093 -2.625,0.401 -3.92,0.965 -4.239,1.103 -4.609,0.958 -4.748,0.64 -4.887,0.322 -4.741,-0.048 -4.423,-0.187 -2.96,-0.823 -1.47,-1.165 0,-1.26 Z"
         style="fill:#e3adbb;fill-opacity:1;fill-rule:nonzero;stroke:none"
         id="path2594" />
    </g>
    <g
       id="g2596"
       transform="matrix(0.35277777,0,0,-0.35277777,76.350626,144.90123)">
      <path
         d="m 0,0 c -5.524,0.326 -10.809,3.635 -13.142,9.367 -0.13,0.321 -0.497,0.475 -0.819,0.345 -0.322,-0.13 -0.477,-0.497 -0.346,-0.818 C -11.779,2.677 -6.017,-0.927 0,-1.259 Z"
         style="fill:#e3adbb;fill-opacity:1;fill-rule:nonzero;stroke:none"
         id="path2598" />
    </g>
    <g
       id="g2600"
       transform="matrix(0.35277777,0,0,-0.35277777,75.227347,139.12312)">
      <path
         d="m 0,0 c -0.751,0 -1.363,-0.61 -1.363,-1.361 0,-0.75 0.612,-1.361 1.363,-1.361 0.752,0 1.363,0.611 1.363,1.361 C 1.363,-0.61 0.752,0 0,0 m 0,-3.988 c -1.451,0 -2.631,1.179 -2.631,2.627 0,1.448 1.18,2.627 2.631,2.627 1.451,0 2.631,-1.179 2.631,-2.627 0,-1.448 -1.18,-2.627 -2.631,-2.627"
         style="fill:#e3adbb;fill-opacity:1;fill-rule:nonzero;stroke:none"
         id="path2602" />
    </g>
    <g
       id="g2604"
       transform="matrix(0.35277777,0,0,-0.35277777,78.827655,131.1386)">
      <path
         d="m 0,0 c 0.074,-0.025 0.212,-0.046 0.416,-0.064 0.204,-0.019 0.342,-0.028 0.416,-0.028 0.271,0 0.53,0.036 0.777,0.111 0.246,0.073 0.465,0.199 0.657,0.378 0.191,0.178 0.342,0.425 0.453,0.739 0.111,0.314 0.166,0.71 0.166,1.19 0,0.407 -0.052,0.751 -0.157,1.034 C 2.623,3.644 2.481,3.868 2.303,4.035 2.124,4.201 1.917,4.321 1.683,4.395 1.449,4.468 1.202,4.505 0.943,4.505 0.561,4.505 0.247,4.475 0,4.413 Z m -2.331,6.259 c 0.444,0.098 0.931,0.176 1.462,0.231 0.53,0.055 1.06,0.083 1.59,0.083 0.568,0 1.125,-0.052 1.675,-0.156 C 2.944,6.312 3.434,6.105 3.865,5.798 4.297,5.49 4.648,5.056 4.92,4.496 5.191,3.936 5.327,3.207 5.327,2.308 5.327,1.496 5.212,0.806 4.984,0.24 4.756,-0.326 4.451,-0.788 4.069,-1.145 3.687,-1.502 3.246,-1.76 2.747,-1.92 2.247,-2.081 1.732,-2.16 1.202,-2.16 H 0.962 C 0.851,-2.16 0.733,-2.157 0.61,-2.151 0.487,-2.145 0.367,-2.136 0.25,-2.124 0.132,-2.111 0.049,-2.099 0,-2.086 v -4.45 h -2.331 z"
         style="fill:#ffffff;fill-opacity:1;fill-rule:nonzero;stroke:none"
         id="path2606" />
    </g>
    <g
       id="g2608"
       transform="matrix(0.35277777,0,0,-0.35277777,82.296343,130.76084)">
      <path
         d="m 0,0 c -0.468,0 -0.82,-0.187 -1.054,-0.563 -0.235,-0.375 -0.37,-0.902 -0.407,-1.579 H 1.091 C 1.128,-1.44 1.054,-0.908 0.869,-0.544 0.685,-0.182 0.395,0 0,0 M 2.885,-6.924 C 2.577,-7.195 2.158,-7.417 1.627,-7.588 1.098,-7.761 0.542,-7.847 -0.037,-7.847 c -0.641,0 -1.193,0.111 -1.655,0.332 -0.463,0.222 -0.842,0.542 -1.138,0.96 -0.295,0.419 -0.515,0.927 -0.656,1.524 -0.142,0.596 -0.213,1.277 -0.213,2.04 0,1.662 0.329,2.889 0.989,3.683 0.66,0.794 1.575,1.191 2.747,1.191 0.395,0 0.777,-0.058 1.147,-0.175 C 1.554,1.591 1.883,1.394 2.173,1.117 2.463,0.84 2.697,0.471 2.876,0.009 3.055,-0.452 3.145,-1.034 3.145,-1.735 3.145,-2.006 3.129,-2.296 3.098,-2.603 3.067,-2.911 3.021,-3.244 2.959,-3.6 h -4.494 c 0.025,-0.764 0.185,-1.348 0.481,-1.754 0.296,-0.407 0.77,-0.61 1.424,-0.61 0.394,0 0.755,0.062 1.082,0.185 0.326,0.123 0.576,0.252 0.749,0.388 z"
         style="fill:#ffffff;fill-opacity:1;fill-rule:nonzero;stroke:none"
         id="path2610" />
    </g>
    <g
       id="g2612"
       transform="matrix(0.35277777,0,0,-0.35277777,85.604481,130.95618)">
      <path
         d="m 0,0 c -0.296,0.111 -0.567,0.166 -0.814,0.166 -0.333,0 -0.62,-0.092 -0.86,-0.277 -0.241,-0.184 -0.404,-0.443 -0.49,-0.775 v -6.167 h -2.201 v 9.232 h 1.683 l 0.259,-1.108 h 0.074 c 0.16,0.406 0.391,0.723 0.693,0.95 0.302,0.229 0.651,0.342 1.045,0.342 0.297,0 0.586,-0.061 0.87,-0.184 z"
         style="fill:#ffffff;fill-opacity:1;fill-rule:nonzero;stroke:none"
         id="path2614" />
    </g>
    <g
       id="g2616"
       transform="matrix(0.35277777,0,0,-0.35277777,82.224341,143.14373)">
      <path
         d="m 0,0 c 0,-0.554 0.042,-1.064 0.127,-1.529 0.085,-0.465 0.214,-0.865 0.389,-1.199 0.174,-0.335 0.398,-0.596 0.671,-0.784 0.273,-0.189 0.599,-0.282 0.976,-0.282 0.687,0 1.219,0.298 1.597,0.894 0.377,0.595 0.566,1.562 0.566,2.9 0,0.533 -0.04,1.03 -0.121,1.489 C 4.125,1.949 4,2.352 3.831,2.697 3.661,3.042 3.439,3.311 3.166,3.504 2.893,3.697 2.558,3.794 2.163,3.794 1.475,3.794 0.942,3.489 0.565,2.877 0.188,2.266 0,1.307 0,0 m -2.036,0 c 0,1.829 0.363,3.238 1.089,4.225 0.725,0.988 1.762,1.482 3.11,1.482 C 2.87,5.707 3.486,5.571 4.014,5.3 4.542,5.027 4.98,4.641 5.329,4.14 5.678,3.637 5.937,3.037 6.106,2.336 6.276,1.636 6.361,0.856 6.361,0 6.361,-1.829 5.996,-3.237 5.265,-4.226 4.535,-5.213 3.5,-5.708 2.163,-5.708 c -0.717,0 -1.339,0.136 -1.866,0.408 -0.528,0.273 -0.964,0.659 -1.308,1.16 -0.344,0.502 -0.6,1.103 -0.77,1.804 -0.17,0.7 -0.255,1.479 -0.255,2.336"
         style="fill:#ffffff;fill-opacity:1;fill-rule:nonzero;stroke:none"
         id="path2618" />
    </g>
    <g
       id="g2620"
       transform="matrix(0.35277777,0,0,-0.35277777,80.889536,144.86437)">
      <path
         d="M 0,0 C -0.343,-0.29 -0.802,-0.501 -1.375,-0.632 -1.95,-0.764 -2.521,-0.83 -3.088,-0.83 c -0.713,0 -1.375,0.122 -1.989,0.366 -0.614,0.243 -1.152,0.649 -1.613,1.215 -0.463,0.566 -0.826,1.311 -1.089,2.233 -0.264,0.922 -0.396,2.055 -0.396,3.399 0,1.396 0.148,2.555 0.445,3.478 0.297,0.922 0.686,1.657 1.168,2.203 0.481,0.547 1.033,0.933 1.653,1.157 0.62,0.223 1.247,0.336 1.88,0.336 0.647,0 1.211,-0.053 1.693,-0.159 0.482,-0.105 0.874,-0.224 1.178,-0.355 l -0.495,-2.194 c -0.251,0.131 -0.545,0.234 -0.881,0.306 -0.336,0.073 -0.736,0.109 -1.197,0.109 -0.911,0 -1.611,-0.395 -2.099,-1.185 -0.488,-0.791 -0.732,-2.029 -0.732,-3.716 0,-0.724 0.056,-1.386 0.168,-1.986 0.112,-0.599 0.29,-1.116 0.535,-1.551 0.244,-0.435 0.554,-0.771 0.93,-1.008 0.376,-0.237 0.828,-0.356 1.356,-0.356 0.462,0 0.857,0.063 1.187,0.188 0.33,0.125 0.627,0.273 0.891,0.445 z"
         style="fill:#ffffff;fill-opacity:1;fill-rule:nonzero;stroke:none"
         id="path2622" />
    </g>
    <g
       id="g2624"
       transform="matrix(0.35277777,0,0,-0.35277777,85.440157,140.27723)">
      <path
         d="M 0,0 H 6.929 V -2.292 H 2.494 V -5.691 H 6.513 V -7.983 H 2.494 v -3.558 h 4.514 v -2.292 H 0 Z"
         style="fill:#ffffff;fill-opacity:1;fill-rule:nonzero;stroke:none"
         id="path2626" />
    </g>
    <g
       id="g2628"
       transform="matrix(0.35277777,0,0,-0.35277777,83.834242,136.35689)">
      <path
         d="m 0,0 c -0.479,0 -0.838,-0.192 -1.077,-0.575 -0.24,-0.384 -0.378,-0.921 -0.416,-1.613 H 1.114 C 1.152,-1.471 1.076,-0.927 0.888,-0.556 0.699,-0.186 0.402,0 0,0 M 2.947,-7.072 C 2.631,-7.349 2.204,-7.575 1.662,-7.75 c -0.541,-0.177 -1.108,-0.265 -1.7,-0.265 -0.655,0 -1.219,0.114 -1.691,0.34 -0.473,0.226 -0.859,0.553 -1.162,0.981 -0.302,0.427 -0.526,0.945 -0.671,1.555 -0.144,0.61 -0.216,1.305 -0.216,2.084 0,1.697 0.336,2.951 1.01,3.762 0.674,0.811 1.609,1.217 2.805,1.217 0.403,0 0.794,-0.06 1.171,-0.179 C 1.587,1.625 1.923,1.424 2.219,1.141 2.515,0.858 2.754,0.481 2.938,0.01 3.119,-0.462 3.211,-1.056 3.211,-1.772 3.211,-2.049 3.195,-2.345 3.164,-2.659 3.132,-2.973 3.085,-3.313 3.022,-3.677 h -4.59 c 0.025,-0.78 0.188,-1.377 0.491,-1.792 0.302,-0.415 0.787,-0.622 1.454,-0.622 0.403,0 0.771,0.063 1.105,0.189 0.334,0.125 0.589,0.257 0.766,0.396 z"
         style="fill:#ffffff;fill-opacity:1;fill-rule:nonzero;stroke:none"
         id="path2630" />
    </g>
    <g
       id="g2632"
       transform="matrix(0.35277777,0,0,-0.35277777,86.664049,138.45909)">
      <path
         d="M 0,0 C 0.34,0 0.611,0.085 0.812,0.254 1.014,0.424 1.165,0.672 1.266,1 V 5.45 C 1.14,5.563 0.998,5.645 0.841,5.695 0.683,5.745 0.479,5.771 0.227,5.771 c -0.504,0 -0.882,-0.227 -1.133,-0.68 -0.253,-0.452 -0.378,-1.257 -0.378,-2.413 0,-0.867 0.103,-1.531 0.311,-1.99 C -0.765,0.229 -0.44,0 0,0 m 3.514,1.508 c 0,-0.528 0.006,-1.055 0.019,-1.584 0.012,-0.528 0,-1.753 0,-1.753 H 1.795 v 1.094 H 1.719 c -0.428,-0.881 -1.177,-1.321 -2.248,-1.321 -0.957,0 -1.709,0.377 -2.257,1.132 -0.548,0.754 -0.822,1.98 -0.822,3.677 0,1.66 0.296,2.92 0.888,3.781 0.592,0.862 1.473,1.292 2.645,1.292 C 0.227,7.826 0.479,7.807 0.68,7.77 0.882,7.732 1.077,7.668 1.266,7.581 v 3.809 h 2.248 z"
         style="fill:#ffffff;fill-opacity:1;fill-rule:nonzero;stroke:none"
         id="path2634" />
    </g>
    <g
       id="g2636"
       transform="matrix(0.35277777,0,0,-0.35277777,81.002707,134.44091)">
      <path
         d="m 0,0 -2.558,-5.611 -0.429,-1.25 H -3.063 L -3.51,-5.648 -6.237,0 h -2.259 v -13.048 h 2.222 v 6.748 1.315 l 0.448,-1.055 2.26,-4.604 h 0.784 l 2.129,4.586 0.522,1.283 v -1.638 h 0.001 v -6.635 H 2.222 V 0 Z"
         style="fill:#ffffff;fill-opacity:1;fill-rule:nonzero;stroke:none"
         id="path2638" />
    </g>
  </g>
</svg>
